<svg width="26" height="27" viewBox="0 0 26 27" fill="none" xmlns="http://www.w3.org/2000/svg">
<path d="M21.4715 5.02833C19.2832 2.83999 14.4298 2.66666 12.9998 2.66666C11.5698 2.66666 6.7165 2.83999 4.52817 5.02833C2.33984 7.21666 2.1665 12.07 2.1665 13.5C2.1665 14.93 2.33984 19.7833 4.52817 21.9717C6.7165 24.16 11.5698 24.3333 12.9998 24.3333C14.4298 24.3333 19.2832 24.16 21.4715 21.9717C23.6598 19.7833 23.8332 14.93 23.8332 13.5C23.8332 12.07 23.6598 7.21666 21.4715 5.02833ZM15.1665 20H10.8332C10.5459 20 10.2703 19.8859 10.0671 19.6827C9.86397 19.4795 9.74984 19.204 9.74984 18.9167C9.74984 18.6293 9.86397 18.3538 10.0671 18.1506C10.2703 17.9475 10.5459 17.8333 10.8332 17.8333H15.1665C15.4538 17.8333 15.7294 17.9475 15.9325 18.1506C16.1357 18.3538 16.2498 18.6293 16.2498 18.9167C16.2498 19.204 16.1357 19.4795 15.9325 19.6827C15.7294 19.8859 15.4538 20 15.1665 20ZM17.019 13.1858L13.769 16.4358C13.6683 16.5374 13.5485 16.618 13.4165 16.673C13.2844 16.728 13.1429 16.7563 12.9998 16.7563C12.8568 16.7563 12.7152 16.728 12.5832 16.673C12.4512 16.618 12.3314 16.5374 12.2307 16.4358L8.98067 13.1858C8.77668 12.9818 8.66207 12.7052 8.66207 12.4167C8.66207 12.1282 8.77668 11.8515 8.98067 11.6475C9.18467 11.4435 9.46134 11.3289 9.74984 11.3289C10.0383 11.3289 10.315 11.4435 10.519 11.6475L11.9165 13.0558V8.08333C11.9165 7.79601 12.0306 7.52046 12.2338 7.3173C12.437 7.11413 12.7125 6.99999 12.9998 6.99999C13.2872 6.99999 13.5627 7.11413 13.7659 7.3173C13.969 7.52046 14.0832 7.79601 14.0832 8.08333V13.0558L15.4807 11.6475C15.6847 11.4435 15.9613 11.3289 16.2498 11.3289C16.5383 11.3289 16.815 11.4435 17.019 11.6475C17.223 11.8515 17.3376 12.1282 17.3376 12.4167C17.3376 12.7052 17.223 12.9818 17.019 13.1858Z" fill="white"/>
</svg>
