<svg width="92" height="96" viewBox="0 0 92 96" fill="none" xmlns="http://www.w3.org/2000/svg">
<g filter="url(#filter0_d_2001_9)">
<circle cx="46" cy="46" r="46" fill="white"/>
</g>
<g clip-path="url(#clip0_2001_9)">
<path d="M69.9573 62.5649H54.5673C54.2732 62.5649 54.0347 62.3265 54.0347 62.0323V59.5682C54.0347 59.274 54.2731 59.0355 54.5673 59.0355H69.9573C70.2514 59.0355 70.49 59.274 70.49 59.5682V62.0323C70.49 62.3264 70.2515 62.5649 69.9573 62.5649Z" fill="url(#paint0_linear_2001_9)"/>
<path d="M68.0044 62.5649H56.5216C56.2662 62.5649 56.0591 62.3579 56.0591 62.1024V59.4981C56.0591 59.2426 56.2661 59.0355 56.5216 59.0355H68.0044C68.2598 59.0355 68.4669 59.2426 68.4669 59.4981V62.1024C68.4669 62.3578 68.2599 62.5649 68.0044 62.5649Z" fill="url(#paint1_linear_2001_9)"/>
<path d="M64.2399 62.5649H60.2858C60.1317 62.5649 60.0068 62.44 60.0068 62.286V59.3144C60.0068 59.1604 60.1317 59.0355 60.2858 59.0355H64.2399C64.3939 59.0355 64.5188 59.1604 64.5188 59.3144V62.286C64.5188 62.44 64.3939 62.5649 64.2399 62.5649Z" fill="url(#paint2_linear_2001_9)"/>
<path d="M55.0326 59.4648C54.7385 59.4648 54.5 59.7033 54.5 59.9975V62.4616C54.5 62.4958 54.5035 62.5292 54.5097 62.5615C54.5289 62.5636 54.5484 62.5648 54.5682 62.5648H69.9581C70.2523 62.5648 70.4908 62.3264 70.4908 62.0322V59.5681C70.4908 59.5339 70.4873 59.5005 70.4811 59.4682C70.4619 59.4661 70.4424 59.4648 70.4226 59.4648H55.0326Z" fill="url(#paint3_linear_2001_9)"/>
<path d="M69.9573 59.0355H54.5673C54.2732 59.0355 54.0347 58.7971 54.0347 58.5029V56.0387C54.0347 55.7445 54.2731 55.5061 54.5673 55.5061H69.9573C70.2514 55.5061 70.49 55.7445 70.49 56.0387V58.5029C70.49 58.797 70.2515 59.0355 69.9573 59.0355Z" fill="url(#paint4_linear_2001_9)"/>
<path d="M68.0044 59.0355H56.5216C56.2662 59.0355 56.0591 58.8285 56.0591 58.573V55.9687C56.0591 55.7133 56.2661 55.5061 56.5216 55.5061H68.0044C68.2598 55.5061 68.4669 55.7132 68.4669 55.9687V58.5731C68.4669 58.8285 68.2599 59.0355 68.0044 59.0355Z" fill="url(#paint5_linear_2001_9)"/>
<path d="M64.2399 59.0355H60.2858C60.1317 59.0355 60.0068 58.9106 60.0068 58.7566V55.785C60.0068 55.631 60.1317 55.5061 60.2858 55.5061H64.2399C64.3939 55.5061 64.5188 55.631 64.5188 55.785V58.7566C64.5188 58.9106 64.3939 59.0355 64.2399 59.0355Z" fill="url(#paint6_linear_2001_9)"/>
<path d="M55.0326 55.9354C54.7385 55.9354 54.5 56.1739 54.5 56.4681V58.9322C54.5 58.9664 54.5035 58.9996 54.5097 59.0321C54.5289 59.0342 54.5484 59.0354 54.5682 59.0354H69.9581C70.2523 59.0354 70.4908 58.797 70.4908 58.5028V56.0387C70.4908 56.0044 70.4873 55.9712 70.4811 55.9388C70.4619 55.9366 70.4424 55.9354 70.4226 55.9354H55.0326Z" fill="url(#paint7_linear_2001_9)"/>
<path d="M69.9573 55.5061H54.5673C54.2732 55.5061 54.0347 55.2677 54.0347 54.9734V52.5093C54.0347 52.2151 54.2731 51.9767 54.5673 51.9767H69.9573C70.2514 51.9767 70.49 52.2151 70.49 52.5093V54.9734C70.49 55.2677 70.2515 55.5061 69.9573 55.5061Z" fill="url(#paint8_linear_2001_9)"/>
<path d="M68.0044 55.5061H56.5216C56.2662 55.5061 56.0591 55.299 56.0591 55.0435V52.4392C56.0591 52.1838 56.2661 51.9767 56.5216 51.9767H68.0044C68.2598 51.9767 68.4669 52.1837 68.4669 52.4392V55.0435C68.4669 55.299 68.2599 55.5061 68.0044 55.5061Z" fill="url(#paint9_linear_2001_9)"/>
<path d="M64.2399 55.5061H60.2858C60.1317 55.5061 60.0068 55.3812 60.0068 55.2272V52.2556C60.0068 52.1016 60.1317 51.9767 60.2858 51.9767H64.2399C64.3939 51.9767 64.5188 52.1016 64.5188 52.2556V55.2272C64.5188 55.3812 64.3939 55.5061 64.2399 55.5061Z" fill="url(#paint10_linear_2001_9)"/>
<path d="M55.0326 52.4061C54.7385 52.4061 54.5 52.6446 54.5 52.9388V55.4029C54.5 55.4371 54.5035 55.4704 54.5097 55.5028C54.5289 55.5049 54.5484 55.5061 54.5682 55.5061H69.9581C70.2523 55.5061 70.4908 55.2677 70.4908 54.9735V52.5094C70.4908 52.4751 70.4873 52.4418 70.4811 52.4095C70.4619 52.4074 70.4424 52.4061 70.4226 52.4061H55.0326Z" fill="url(#paint11_linear_2001_9)"/>
<path d="M69.9573 51.9767H54.5673C54.2732 51.9767 54.0347 51.7382 54.0347 51.444V48.9799C54.0347 48.6857 54.2731 48.4473 54.5673 48.4473H69.9573C70.2514 48.4473 70.49 48.6857 70.49 48.9799V51.444C70.49 51.7382 70.2515 51.9767 69.9573 51.9767Z" fill="url(#paint12_linear_2001_9)"/>
<path d="M68.0044 51.9767H56.5216C56.2662 51.9767 56.0591 51.7696 56.0591 51.5141V48.9098C56.0591 48.6544 56.2661 48.4473 56.5216 48.4473H68.0044C68.2598 48.4473 68.4669 48.6543 68.4669 48.9098V51.5142C68.4669 51.7696 68.2599 51.9767 68.0044 51.9767Z" fill="url(#paint13_linear_2001_9)"/>
<path d="M64.2399 51.9767H60.2858C60.1317 51.9767 60.0068 51.8518 60.0068 51.6978V48.7262C60.0068 48.5722 60.1317 48.4473 60.2858 48.4473H64.2399C64.3939 48.4473 64.5188 48.5722 64.5188 48.7262V51.6978C64.5188 51.8518 64.3939 51.9767 64.2399 51.9767Z" fill="url(#paint14_linear_2001_9)"/>
<path d="M55.0326 48.8766C54.7385 48.8766 54.5 49.115 54.5 49.4092V51.8734C54.5 51.9076 54.5035 51.9409 54.5097 51.9733C54.5289 51.9754 54.5484 51.9766 54.5682 51.9766H69.9581C70.2523 51.9766 70.4908 51.7382 70.4908 51.4439V48.9798C70.4908 48.9456 70.4873 48.9124 70.4811 48.8799C70.4619 48.8778 70.4424 48.8766 70.4226 48.8766H55.0326Z" fill="url(#paint15_linear_2001_9)"/>
<path d="M69.9573 48.4473H54.5673C54.2732 48.4473 54.0347 48.2088 54.0347 47.9146V45.4505C54.0347 45.1563 54.2731 44.9178 54.5673 44.9178H69.9573C70.2514 44.9178 70.49 45.1563 70.49 45.4505V47.9146C70.49 48.2088 70.2515 48.4473 69.9573 48.4473Z" fill="url(#paint16_linear_2001_9)"/>
<path d="M68.0044 48.4473H56.5216C56.2662 48.4473 56.0591 48.2402 56.0591 47.9847V45.3804C56.0591 45.1249 56.2661 44.9178 56.5216 44.9178H68.0044C68.2598 44.9178 68.4669 45.1249 68.4669 45.3804V47.9847C68.4669 48.2402 68.2599 48.4473 68.0044 48.4473Z" fill="url(#paint17_linear_2001_9)"/>
<path d="M64.2399 48.4473H60.2858C60.1317 48.4473 60.0068 48.3224 60.0068 48.1683V45.1968C60.0068 45.0427 60.1317 44.9178 60.2858 44.9178H64.2399C64.3939 44.9178 64.5188 45.0427 64.5188 45.1968V48.1683C64.5188 48.3225 64.3939 48.4473 64.2399 48.4473Z" fill="url(#paint18_linear_2001_9)"/>
<path d="M55.0326 45.3474C54.7385 45.3474 54.5 45.5858 54.5 45.8801V48.3442C54.5 48.3784 54.5035 48.4117 54.5097 48.4441C54.5289 48.4461 54.5484 48.4474 54.5682 48.4474H69.9581C70.2523 48.4474 70.4908 48.209 70.4908 47.9148V45.4506C70.4908 45.4164 70.4873 45.3831 70.4811 45.3507C70.4619 45.3487 70.4424 45.3474 70.4226 45.3474H55.0326Z" fill="url(#paint19_linear_2001_9)"/>
<path d="M69.9573 44.918H54.5673C54.2732 44.918 54.0347 44.6795 54.0347 44.3853V41.9212C54.0347 41.627 54.2731 41.3885 54.5673 41.3885H69.9573C70.2514 41.3885 70.49 41.627 70.49 41.9212V44.3853C70.49 44.6795 70.2515 44.918 69.9573 44.918Z" fill="url(#paint20_linear_2001_9)"/>
<path d="M68.0044 44.918H56.5216C56.2662 44.918 56.0591 44.7109 56.0591 44.4554V41.8511C56.0591 41.5957 56.2661 41.3885 56.5216 41.3885H68.0044C68.2598 41.3885 68.4669 41.5956 68.4669 41.8511V44.4554C68.4669 44.7109 68.2599 44.918 68.0044 44.918Z" fill="url(#paint21_linear_2001_9)"/>
<path d="M64.2399 44.918H60.2858C60.1317 44.918 60.0068 44.7931 60.0068 44.639V41.6675C60.0068 41.5135 60.1317 41.3885 60.2858 41.3885H64.2399C64.3939 41.3885 64.5188 41.5135 64.5188 41.6675V44.639C64.5188 44.7932 64.3939 44.918 64.2399 44.918Z" fill="url(#paint22_linear_2001_9)"/>
<path d="M55.0326 41.8177C54.7385 41.8177 54.5 42.0562 54.5 42.3504V44.8145C54.5 44.8487 54.5035 44.882 54.5097 44.9144C54.5289 44.9165 54.5484 44.9178 54.5682 44.9178H69.9581C70.2523 44.9178 70.4908 44.6793 70.4908 44.3851V41.921C70.4908 41.8868 70.4873 41.8535 70.4811 41.8211C70.4619 41.819 70.4424 41.8177 70.4226 41.8177H55.0326Z" fill="url(#paint23_linear_2001_9)"/>
<path d="M69.9573 41.3887H54.5673C54.2732 41.3887 54.0347 41.1502 54.0347 40.856V38.3919C54.0347 38.0977 54.2731 37.8593 54.5673 37.8593H69.9573C70.2514 37.8593 70.49 38.0977 70.49 38.3919V40.856C70.49 41.1501 70.2515 41.3887 69.9573 41.3887Z" fill="url(#paint24_linear_2001_9)"/>
<path d="M68.0044 41.3885H56.5216C56.2662 41.3885 56.0591 41.1815 56.0591 40.926V38.3216C56.0591 38.0662 56.2661 37.859 56.5216 37.859H68.0044C68.2598 37.859 68.4669 38.0661 68.4669 38.3216V40.9259C68.4669 41.1814 68.2599 41.3885 68.0044 41.3885Z" fill="url(#paint25_linear_2001_9)"/>
<path d="M64.2399 41.3887H60.2858C60.1317 41.3887 60.0068 41.2638 60.0068 41.1097V38.1382C60.0068 37.9842 60.1317 37.8593 60.2858 37.8593H64.2399C64.3939 37.8593 64.5188 37.9842 64.5188 38.1382V41.1097C64.5188 41.2638 64.3939 41.3887 64.2399 41.3887Z" fill="url(#paint26_linear_2001_9)"/>
<path d="M55.0326 38.2885C54.7385 38.2885 54.5 38.5269 54.5 38.8211V41.2852C54.5 41.3194 54.5035 41.3528 54.5097 41.3851C54.5289 41.3872 54.5484 41.3885 54.5682 41.3885H69.9581C70.2523 41.3885 70.4908 41.15 70.4908 40.8558V38.3917C70.4908 38.3575 70.4873 38.3241 70.4811 38.2918C70.4619 38.2897 70.4424 38.2885 70.4226 38.2885H55.0326Z" fill="url(#paint27_linear_2001_9)"/>
<path d="M69.9573 37.859H54.5673C54.2732 37.859 54.0347 37.6206 54.0347 37.3264V34.8622C54.0347 34.568 54.2731 34.3296 54.5673 34.3296H69.9573C70.2514 34.3296 70.49 34.568 70.49 34.8622V37.3264C70.49 37.6205 70.2515 37.859 69.9573 37.859Z" fill="url(#paint28_linear_2001_9)"/>
<path d="M68.0044 37.859H56.5216C56.2662 37.859 56.0591 37.6519 56.0591 37.3965V34.7921C56.0591 34.5367 56.2661 34.3296 56.5216 34.3296H68.0044C68.2598 34.3296 68.4669 34.5366 68.4669 34.7921V37.3965C68.4669 37.6519 68.2599 37.859 68.0044 37.859Z" fill="url(#paint29_linear_2001_9)"/>
<path d="M64.2399 37.859H60.2858C60.1317 37.859 60.0068 37.7341 60.0068 37.5801V34.6085C60.0068 34.4545 60.1317 34.3296 60.2858 34.3296H64.2399C64.3939 34.3296 64.5188 34.4545 64.5188 34.6085V37.5801C64.5188 37.7341 64.3939 37.859 64.2399 37.859Z" fill="url(#paint30_linear_2001_9)"/>
<path d="M55.0326 34.7592C54.7385 34.7592 54.5 34.9976 54.5 35.2918V37.7559C54.5 37.7901 54.5035 37.8234 54.5097 37.8558C54.5289 37.8579 54.5484 37.8592 54.5682 37.8592H69.9581C70.2523 37.8592 70.4908 37.6207 70.4908 37.3265V34.8624C70.4908 34.8282 70.4873 34.7948 70.4811 34.7625C70.4619 34.7604 70.4424 34.7592 70.4226 34.7592H55.0326Z" fill="url(#paint31_linear_2001_9)"/>
<path d="M61.9501 47.2425L60.5358 39.8254C59.4809 34.2931 54.6435 30.2909 49.0115 30.2909H43.7052C38.0731 30.2909 33.2358 34.2931 32.1809 39.8254L31.379 44.0306C30.6084 48.0718 29.3767 52.0253 27.5345 55.7038C26.9959 56.7793 26.713 58.005 26.7661 59.3017C26.9193 63.0532 30.221 66.2812 33.9749 66.3546C34.0025 66.3551 34.0299 66.3555 34.0574 66.3558C35.7605 66.3705 37.4003 67.0342 38.5947 68.2484C39.9296 69.6055 41.7865 70.4472 43.8407 70.4472C46.3337 70.4472 48.5367 69.2078 49.8684 67.3118C50.2972 66.7014 51.0003 66.3545 51.7463 66.356H51.7592C52.0797 66.356 52.3946 66.3323 52.7024 66.2866C53.2828 66.2006 53.8699 66.3487 54.349 66.6876C55.6448 67.6041 57.2493 68.113 58.9766 68.0255C62.673 67.8384 65.6883 64.8794 65.9395 61.1868C66.0299 59.8582 65.7671 58.5988 65.2359 57.4928C63.6769 54.2463 62.6246 50.78 61.9501 47.2425Z" fill="url(#paint32_radial_2001_9)"/>
<path d="M34.1224 66.3558C38.1887 66.3558 41.4851 63.0594 41.4851 58.9931C41.4851 54.9269 38.1887 51.6305 34.1224 51.6305C30.0561 51.6305 26.7598 54.9269 26.7598 58.9931C26.7598 63.0594 30.0561 66.3558 34.1224 66.3558Z" fill="url(#paint33_linear_2001_9)"/>
<path d="M43.8407 70.4471C47.907 70.4471 51.2033 67.1507 51.2033 63.0844C51.2033 59.0182 47.907 55.7218 43.8407 55.7218C39.7744 55.7218 36.478 59.0182 36.478 63.0844C36.478 67.1507 39.7744 70.4471 43.8407 70.4471Z" fill="url(#paint34_linear_2001_9)"/>
<path d="M58.5946 68.0352C62.6609 68.0352 65.9572 64.7389 65.9572 60.6726C65.9572 56.6063 62.6609 53.3099 58.5946 53.3099C54.5283 53.3099 51.2319 56.6063 51.2319 60.6726C51.2319 64.7389 54.5283 68.0352 58.5946 68.0352Z" fill="url(#paint35_linear_2001_9)"/>
<path d="M65.9392 61.1868C66.0296 59.8581 65.7668 58.5988 65.2356 57.4928C63.6766 54.2463 62.6244 50.78 61.9499 47.2424L60.5356 39.8253C60.1529 37.8178 59.2701 36.0136 58.0341 34.5272C55.9885 32.8333 53.3698 31.8317 50.5522 31.8317H45.2458C39.6139 31.8317 34.7764 35.8338 33.7215 41.3662L32.9196 45.5714C32.149 49.6126 30.9173 53.5661 29.0751 57.2445C28.5365 58.32 28.2537 59.5457 28.3066 60.8424C28.3669 62.3183 28.916 63.7122 29.7868 64.8658C30.9851 65.7683 32.442 66.3244 33.9746 66.3544C34.0022 66.3549 34.0296 66.3553 34.0571 66.3556C35.7602 66.3703 37.4001 67.034 38.5945 68.2482C39.9294 69.6053 41.7863 70.447 43.8405 70.447C46.3336 70.447 48.5365 69.2076 49.8683 67.3116C50.297 66.7012 51.0001 66.3543 51.7461 66.3558H51.759C52.0795 66.3558 52.3944 66.3321 52.7022 66.2864C53.2826 66.2004 53.8697 66.3485 54.3489 66.6874C55.6446 67.6039 57.2491 68.1128 58.9764 68.0253C62.6728 67.8384 65.6882 64.8794 65.9392 61.1868Z" fill="url(#paint36_linear_2001_9)"/>
<path d="M50.6364 38.9581C50.1034 38.7932 49.5969 38.6744 49.1172 38.6012C48.8858 38.5658 48.6521 38.5372 48.4165 38.5146C48.4145 38.5136 48.4127 38.5125 48.4108 38.5114L47.3315 37.3936C47.1184 37.2544 46.8872 37.1844 46.6386 37.1844C46.3541 37.1844 46.1143 37.2507 45.919 37.3823C45.7233 37.5143 45.6258 37.6709 45.6258 37.8516V38.5437C44.08 38.761 42.805 39.332 41.8014 40.256C40.7973 41.18 40.2956 42.4481 40.2956 44.0605C40.2956 44.7181 40.411 45.3178 40.642 45.8595C40.8728 46.4017 41.1394 46.8456 41.4417 47.1921L45.6259 51.3801V53.8683C44.933 53.7442 44.1776 53.3931 43.3606 52.8155C42.5431 52.2384 41.9655 51.9494 41.6282 51.9494C41.1485 51.9494 40.7263 52.1984 40.3622 52.6956C39.9979 53.1933 39.8159 53.6909 39.8159 54.1882C39.8159 54.8362 40.1339 55.4348 40.7687 55.9844L51.2026 66.4183C51.3791 66.377 51.5616 66.3557 51.7469 66.3561H51.7598C52.0803 66.3561 52.3952 66.3324 52.703 66.2867C53.2834 66.2007 53.8705 66.3489 54.3496 66.6877C55.6454 67.6043 57.2499 68.1131 58.9772 68.0256C62.6737 67.8386 65.689 64.8795 65.9401 61.1869C66.0305 59.8583 65.7677 58.599 65.2365 57.4929C64.1515 55.2335 63.3126 52.8674 62.6749 50.445L51.929 39.6993C51.5999 39.3699 51.1694 39.123 50.6364 38.9581Z" fill="url(#paint37_linear_2001_9)"/>
<path d="M52.5687 49.8441C52.3461 49.2756 52.0797 48.8045 51.7691 48.4315C51.4579 48.0584 51.0448 47.7032 50.5296 47.3654C50.0142 47.0281 49.5524 46.7704 49.1438 46.5926C48.7349 46.4151 48.2377 46.2107 47.6514 45.9795V42.0884C48.2909 42.1417 48.9082 42.3194 49.5037 42.6214C50.0988 42.9238 50.5206 43.0745 50.7696 43.0745C51.2847 43.0745 51.6892 42.8217 51.9823 42.3162C52.2754 41.8106 52.422 41.3226 52.422 40.8529C52.422 40.4136 52.2576 40.0293 51.929 39.6993C51.5999 39.3699 51.1694 39.1231 50.6364 38.9581C50.1034 38.7932 49.5969 38.6744 49.1172 38.6012C48.6375 38.5279 48.1486 38.4821 47.6514 38.4638V37.8487C47.6514 37.6845 47.5447 37.533 47.3315 37.3935C47.1184 37.2544 46.8872 37.1844 46.6386 37.1844C46.3541 37.1844 46.1143 37.2507 45.919 37.3823C45.7233 37.5143 45.6258 37.6709 45.6258 37.8516V38.5437C44.08 38.761 42.805 39.332 41.8014 40.256C40.7973 41.18 40.2956 42.4481 40.2956 44.0605C40.2956 44.7181 40.4109 45.3178 40.642 45.8595C40.8728 46.4017 41.1394 46.8456 41.4417 47.1921C41.7436 47.5386 42.17 47.8763 42.7209 48.2048C43.2714 48.5339 43.7338 48.7779 44.1068 48.9377C44.4799 49.0976 44.9863 49.3021 45.6259 49.5507V53.8683C44.933 53.7442 44.1776 53.3931 43.3606 52.8155C42.5431 52.2384 41.9655 51.9494 41.6282 51.9494C41.1485 51.9494 40.7263 52.1984 40.3622 52.6956C39.9979 53.1933 39.8159 53.6909 39.8159 54.1882C39.8159 55.059 40.389 55.8405 41.5349 56.5336C42.681 57.2265 44.0444 57.5996 45.6259 57.6529V58.3192C45.6259 58.5144 45.7235 58.6831 45.9191 58.8255C46.1144 58.9675 46.3542 59.0388 46.6387 59.0388C46.8872 59.0388 47.1185 58.963 47.3316 58.8122C47.5449 58.661 47.6515 58.4965 47.6515 58.3192V57.5462C49.2506 57.2797 50.5252 56.6493 51.4759 55.654C52.4263 54.6591 52.9018 53.3532 52.9018 51.7361C52.9017 51.0433 52.7906 50.4128 52.5687 49.8441ZM45.8924 45.3398C44.7551 44.8601 44.1866 44.3004 44.1866 43.6608C44.1866 42.8971 44.755 42.3994 45.8924 42.1683V45.3398ZM47.3848 53.8417V50.2704C48.4684 50.7859 49.0106 51.4164 49.0106 52.1627C49.0106 53.0334 48.4684 53.5931 47.3848 53.8417Z" fill="url(#paint38_linear_2001_9)"/>
<path d="M49.9748 30.2907H42.7424L39.452 23.9829C38.9662 23.0517 39.5208 21.9162 40.5538 21.7268L42.7086 21.3317C45.1219 20.8893 47.5954 20.8893 50.0085 21.3317L52.1633 21.7268C53.1964 21.9162 53.751 23.0516 53.2652 23.9829L49.9748 30.2907Z" fill="url(#paint39_linear_2001_9)"/>
<path d="M47.5614 30.2907H45.156L44.0617 23.9829C43.9001 23.0517 44.0846 21.9162 44.4281 21.7268L45.1448 21.3317C45.9473 20.8893 46.77 20.8893 47.5726 21.3317L48.2893 21.7268C48.6329 21.9162 48.8173 23.0516 48.6558 23.9829L47.5614 30.2907Z" fill="url(#paint40_linear_2001_9)"/>
<path d="M53.1563 22.3617C53.2973 22.5623 53.2263 22.8418 53.0076 22.9526C51.9814 23.4745 50.768 23.4745 49.7419 22.9526L48.8348 22.4921C47.8087 21.9702 46.5951 21.9702 45.5691 22.4921L44.6631 22.9526C43.6369 23.4745 42.4235 23.4745 41.3973 22.9526L40.4484 22.47C40.1159 22.3009 40.1779 21.798 40.5445 21.7292C40.5476 21.7286 40.5506 21.728 40.5538 21.7275L42.7086 21.3316C45.1213 20.8898 47.5953 20.8898 50.0082 21.3316L52.163 21.7275C52.5885 21.805 52.9323 22.043 53.1563 22.3617Z" fill="url(#paint41_linear_2001_9)"/>
<path d="M53.2861 23.2457C53.3345 23.1282 53.3696 23.0076 53.3954 22.886C53.2537 22.32 52.7999 21.8436 52.1633 21.7268L50.0085 21.3317C47.5953 20.8893 45.1217 20.8893 42.7086 21.3317L41.1014 21.6264C40.9001 22.1089 40.8744 22.7073 41.0964 23.2457L44 30.2907H49.9748L51.9171 26.5671L53.2861 23.2457Z" fill="url(#paint42_linear_2001_9)"/>
<path d="M46.3587 30.9979C44.791 30.9979 43.3071 30.8967 42.091 30.7095C41.6905 30.6478 41.4219 30.2661 41.5026 29.869C41.5777 29.4998 41.9285 29.254 42.301 29.3111C43.4431 29.4862 44.8799 29.5842 46.3587 29.5842C47.8375 29.5842 49.2742 29.4862 50.4165 29.3111C50.7889 29.254 51.1397 29.4997 51.2148 29.869C51.2956 30.2661 51.027 30.6479 50.6265 30.7095C49.4104 30.8967 47.9265 30.9979 46.3587 30.9979Z" fill="url(#paint43_linear_2001_9)"/>
<path d="M37.9479 50.2322C37.8918 49.9982 37.6833 49.8236 37.4321 49.8236H35.4785H31.7142H29.9154C29.2699 51.8395 28.4838 53.8083 27.5346 55.7037C26.996 56.7792 26.7131 58.0049 26.7661 59.3015C26.9193 63.053 30.2211 66.2811 33.975 66.3545C34.0025 66.355 34.03 66.3554 34.0574 66.3557C35.7606 66.3704 37.4005 67.0341 38.5949 68.2483C39.9298 69.6054 41.7867 70.447 43.8409 70.447C46.3339 70.447 48.5368 69.2076 49.8686 67.3116C50.2973 66.7013 51.0005 66.3544 51.7465 66.3559H51.7594C52.0799 66.3559 52.3948 66.3321 52.7025 66.2865C53.2829 66.2005 53.8701 66.3486 54.3492 66.6874C54.4042 66.7264 54.4605 66.7635 54.5167 66.8009L37.9479 50.2322Z" fill="url(#paint44_linear_2001_9)"/>
<path d="M37.4324 71H22.0424C21.7483 71 21.5098 70.7616 21.5098 70.4673V68.0032C21.5098 67.709 21.7482 67.4706 22.0424 67.4706H37.4324C37.7265 67.4706 37.9651 67.709 37.9651 68.0032V70.4673C37.9651 70.7616 37.7265 71 37.4324 71Z" fill="url(#paint45_linear_2001_9)"/>
<path d="M35.4785 71H23.9958C23.7403 71 23.5332 70.7929 23.5332 70.5374V67.9331C23.5332 67.6777 23.7403 67.4706 23.9958 67.4706H35.4785C35.7339 67.4706 35.941 67.6776 35.941 67.9331V70.5374C35.941 70.7929 35.734 71 35.4785 71Z" fill="url(#paint46_linear_2001_9)"/>
<path d="M31.714 71H27.7599C27.6059 71 27.481 70.8751 27.481 70.7211V67.7495C27.481 67.5955 27.6059 67.4706 27.7599 67.4706H31.714C31.868 67.4706 31.9929 67.5955 31.9929 67.7495V70.7211C31.9929 70.8751 31.868 71 31.714 71Z" fill="url(#paint47_linear_2001_9)"/>
<path d="M22.5068 67.8999C22.2126 67.8999 21.9741 68.1383 21.9741 68.4325V70.8967C21.9741 70.9309 21.9777 70.9642 21.9838 70.9966C22.003 70.9986 22.0226 70.9999 22.0424 70.9999H37.4324C37.7266 70.9999 37.965 70.7615 37.965 70.4673V68.0031C37.965 67.9689 37.9615 67.9356 37.9553 67.9032C37.9361 67.9012 37.9166 67.8999 37.8968 67.8999H22.5068Z" fill="url(#paint48_linear_2001_9)"/>
<path d="M37.4324 67.4706H22.0424C21.7483 67.4706 21.5098 67.2321 21.5098 66.9379V64.4738C21.5098 64.1796 21.7482 63.9412 22.0424 63.9412H37.4324C37.7265 63.9412 37.9651 64.1796 37.9651 64.4738V66.9379C37.9651 67.2321 37.7265 67.4706 37.4324 67.4706Z" fill="url(#paint49_linear_2001_9)"/>
<path d="M35.4785 67.4706H23.9958C23.7403 67.4706 23.5332 67.2635 23.5332 67.008V64.4036C23.5332 64.1482 23.7403 63.941 23.9958 63.941H35.4785C35.7339 63.941 35.941 64.1481 35.941 64.4036V67.008C35.941 67.2635 35.734 67.4706 35.4785 67.4706Z" fill="url(#paint50_linear_2001_9)"/>
<path d="M31.714 67.4706H27.7599C27.6059 67.4706 27.481 67.3457 27.481 67.1917V64.2201C27.481 64.0661 27.6059 63.9412 27.7599 63.9412H31.714C31.868 63.9412 31.9929 64.0661 31.9929 64.2201V67.1917C31.9929 67.3457 31.868 67.4706 31.714 67.4706Z" fill="url(#paint51_linear_2001_9)"/>
<path d="M22.5068 64.3705C22.2126 64.3705 21.9741 64.6089 21.9741 64.9031V67.3672C21.9741 67.4015 21.9777 67.4347 21.9838 67.4671C22.003 67.4693 22.0226 67.4705 22.0424 67.4705H37.4324C37.7266 67.4705 37.965 67.2321 37.965 66.9378V64.4737C37.965 64.4395 37.9615 64.4062 37.9553 64.3738C37.9361 64.3717 37.9166 64.3705 37.8968 64.3705H22.5068Z" fill="url(#paint52_linear_2001_9)"/>
<path d="M37.4324 63.9412H22.0424C21.7483 63.9412 21.5098 63.7027 21.5098 63.4085V60.9444C21.5098 60.6503 21.7482 60.4117 22.0424 60.4117H37.4324C37.7265 60.4117 37.9651 60.6502 37.9651 60.9444V63.4085C37.9651 63.7027 37.7265 63.9412 37.4324 63.9412Z" fill="url(#paint53_linear_2001_9)"/>
<path d="M35.4785 63.9412H23.9958C23.7403 63.9412 23.5332 63.7341 23.5332 63.4786V60.8743C23.5332 60.6188 23.7403 60.4117 23.9958 60.4117H35.4785C35.7339 60.4117 35.941 60.6188 35.941 60.8743V63.4786C35.941 63.7341 35.734 63.9412 35.4785 63.9412Z" fill="url(#paint54_linear_2001_9)"/>
<path d="M31.714 63.9412H27.7599C27.6059 63.9412 27.481 63.8163 27.481 63.6622V60.6907C27.481 60.5366 27.6059 60.4117 27.7599 60.4117H31.714C31.868 60.4117 31.9929 60.5366 31.9929 60.6907V63.6622C31.9929 63.8164 31.868 63.9412 31.714 63.9412Z" fill="url(#paint55_linear_2001_9)"/>
<path d="M22.5068 60.8412C22.2126 60.8412 21.9741 61.0796 21.9741 61.3738V63.8379C21.9741 63.8722 21.9777 63.9055 21.9838 63.9379C22.003 63.9399 22.0226 63.9412 22.0424 63.9412H37.4324C37.7266 63.9412 37.965 63.7028 37.965 63.4085V60.9444C37.965 60.9102 37.9615 60.877 37.9553 60.8445C37.9361 60.8425 37.9166 60.8412 37.8968 60.8412H22.5068Z" fill="url(#paint56_linear_2001_9)"/>
<path d="M37.4324 60.4119H22.0424C21.7483 60.4119 21.5098 60.1734 21.5098 59.8792V57.4151C21.5098 57.1209 21.7482 56.8824 22.0424 56.8824H37.4324C37.7265 56.8824 37.9651 57.1209 37.9651 57.4151V59.8792C37.9651 60.1734 37.7265 60.4119 37.4324 60.4119Z" fill="url(#paint57_linear_2001_9)"/>
<path d="M35.4785 60.4116H23.9958C23.7403 60.4116 23.5332 60.2045 23.5332 59.949V57.3446C23.5332 57.0892 23.7403 56.8821 23.9958 56.8821H35.4785C35.7339 56.8821 35.941 57.0891 35.941 57.3446V59.949C35.941 60.2045 35.734 60.4116 35.4785 60.4116Z" fill="url(#paint58_linear_2001_9)"/>
<path d="M31.714 60.4119H27.7599C27.6059 60.4119 27.481 60.287 27.481 60.1329V57.1614C27.481 57.0073 27.6059 56.8824 27.7599 56.8824H31.714C31.868 56.8824 31.9929 57.0073 31.9929 57.1614V60.1329C31.9929 60.2871 31.868 60.4119 31.714 60.4119Z" fill="url(#paint59_linear_2001_9)"/>
<path d="M22.5068 57.3116C22.2126 57.3116 21.9741 57.5501 21.9741 57.8443V60.3084C21.9741 60.3426 21.9777 60.3759 21.9838 60.4083C22.003 60.4105 22.0226 60.4116 22.0424 60.4116H37.4324C37.7266 60.4116 37.965 60.1732 37.965 59.879V57.4149C37.965 57.3807 37.9615 57.3474 37.9553 57.315C37.9361 57.3128 37.9166 57.3116 37.8968 57.3116H22.5068Z" fill="url(#paint60_linear_2001_9)"/>
<path d="M37.4324 56.8824H22.0424C21.7483 56.8824 21.5098 56.644 21.5098 56.3498V53.8857C21.5098 53.5916 21.7482 53.353 22.0424 53.353H37.4324C37.7265 53.353 37.9651 53.5915 37.9651 53.8857V56.3498C37.9651 56.6439 37.7265 56.8824 37.4324 56.8824Z" fill="url(#paint61_linear_2001_9)"/>
<path d="M35.4785 56.8824H23.9958C23.7403 56.8824 23.5332 56.6754 23.5332 56.4199V53.8156C23.5332 53.5602 23.7403 53.353 23.9958 53.353H35.4785C35.7339 53.353 35.941 53.5601 35.941 53.8156V56.4199C35.941 56.6753 35.734 56.8824 35.4785 56.8824Z" fill="url(#paint62_linear_2001_9)"/>
<path d="M31.714 56.8824H27.7599C27.6059 56.8824 27.481 56.7575 27.481 56.6035V53.6319C27.481 53.4779 27.6059 53.353 27.7599 53.353H31.714C31.868 53.353 31.9929 53.4779 31.9929 53.6319V56.6035C31.9929 56.7575 31.868 56.8824 31.714 56.8824Z" fill="url(#paint63_linear_2001_9)"/>
<path d="M22.5068 53.7825C22.2126 53.7825 21.9741 54.0209 21.9741 54.3151V56.7792C21.9741 56.8134 21.9777 56.8468 21.9838 56.8791C22.003 56.8812 22.0226 56.8825 22.0424 56.8825H37.4324C37.7266 56.8825 37.965 56.644 37.965 56.3498V53.8857C37.965 53.8515 37.9615 53.8183 37.9553 53.7858C37.9361 53.7837 37.9166 53.7825 37.8968 53.7825H22.5068Z" fill="url(#paint64_linear_2001_9)"/>
<path d="M37.4324 53.353H22.0424C21.7483 53.353 21.5098 53.1146 21.5098 52.8204V50.3563C21.5098 50.062 21.7482 49.8236 22.0424 49.8236H37.4324C37.7265 49.8236 37.9651 50.062 37.9651 50.3563V52.8204C37.9651 53.1145 37.7265 53.353 37.4324 53.353Z" fill="url(#paint65_linear_2001_9)"/>
<path d="M35.4785 53.3531H23.9958C23.7403 53.3531 23.5332 53.1461 23.5332 52.8906V50.2862C23.5332 50.0308 23.7403 49.8236 23.9958 49.8236H35.4785C35.7339 49.8236 35.941 50.0307 35.941 50.2862V52.8906C35.941 53.1461 35.734 53.3531 35.4785 53.3531Z" fill="url(#paint66_linear_2001_9)"/>
<path d="M31.714 53.353H27.7599C27.6059 53.353 27.481 53.2281 27.481 53.0741V50.1025C27.481 49.9485 27.6059 49.8236 27.7599 49.8236H31.714C31.868 49.8236 31.9929 49.9485 31.9929 50.1025V53.0741C31.9929 53.2281 31.868 53.353 31.714 53.353Z" fill="url(#paint67_linear_2001_9)"/>
<path d="M22.5068 50.2531C22.2126 50.2531 21.9741 50.4915 21.9741 50.7857V53.2498C21.9741 53.284 21.9777 53.3173 21.9838 53.3497C22.003 53.3518 22.0226 53.3531 22.0424 53.3531H37.4324C37.7266 53.3531 37.965 53.1146 37.965 52.8204V50.3563C37.965 50.3221 37.9615 50.2888 37.9553 50.2564C37.9361 50.2543 37.9166 50.2531 37.8968 50.2531H22.5068Z" fill="url(#paint68_linear_2001_9)"/>
<path d="M66.2898 71H50.8998C50.6056 71 50.3672 70.7616 50.3672 70.4673V68.0032C50.3672 67.709 50.6056 67.4706 50.8998 67.4706H66.2898C66.584 67.4706 66.8225 67.709 66.8225 68.0032V70.4673C66.8225 70.7616 66.584 71 66.2898 71Z" fill="url(#paint69_linear_2001_9)"/>
<path d="M64.3359 71H52.8532C52.5978 71 52.3906 70.7929 52.3906 70.5374V67.9331C52.3906 67.6777 52.5977 67.4706 52.8532 67.4706H64.3359C64.5913 67.4706 64.7985 67.6776 64.7985 67.9331V70.5374C64.7985 70.7929 64.5913 71 64.3359 71Z" fill="url(#paint70_linear_2001_9)"/>
<path d="M60.5714 71H56.6173C56.4633 71 56.3384 70.8751 56.3384 70.7211V67.7495C56.3384 67.5955 56.4633 67.4706 56.6173 67.4706H60.5714C60.7254 67.4706 60.8503 67.5955 60.8503 67.7495V70.7211C60.8503 70.8751 60.7254 71 60.5714 71Z" fill="url(#paint71_linear_2001_9)"/>
<path d="M51.3642 67.8999C51.0701 67.8999 50.8315 68.1383 50.8315 68.4325V70.8967C50.8315 70.9309 50.8351 70.9642 50.8412 70.9966C50.8605 70.9986 50.88 70.9999 50.8998 70.9999H66.2898C66.5839 70.9999 66.8224 70.7615 66.8224 70.4673V68.0031C66.8224 67.9689 66.8189 67.9356 66.8127 67.9032C66.7935 67.9012 66.774 67.8999 66.7542 67.8999H51.3642Z" fill="url(#paint72_linear_2001_9)"/>
<path d="M66.2898 67.4706H50.8998C50.6056 67.4706 50.3672 67.2321 50.3672 66.9379V64.4738C50.3672 64.1796 50.6056 63.9412 50.8998 63.9412H66.2898C66.584 63.9412 66.8225 64.1796 66.8225 64.4738V66.9379C66.8225 67.2321 66.584 67.4706 66.2898 67.4706Z" fill="url(#paint73_linear_2001_9)"/>
<path d="M64.3359 67.4706H52.8532C52.5978 67.4706 52.3906 67.2635 52.3906 67.008V64.4036C52.3906 64.1482 52.5977 63.941 52.8532 63.941H64.3359C64.5913 63.941 64.7985 64.1481 64.7985 64.4036V67.008C64.7985 67.2635 64.5913 67.4706 64.3359 67.4706Z" fill="url(#paint74_linear_2001_9)"/>
<path d="M60.5714 67.4706H56.6173C56.4633 67.4706 56.3384 67.3457 56.3384 67.1917V64.2201C56.3384 64.0661 56.4633 63.9412 56.6173 63.9412H60.5714C60.7254 63.9412 60.8503 64.0661 60.8503 64.2201V67.1917C60.8503 67.3457 60.7254 67.4706 60.5714 67.4706Z" fill="url(#paint75_linear_2001_9)"/>
<path d="M51.3642 64.3705C51.0701 64.3705 50.8315 64.6089 50.8315 64.9031V67.3672C50.8315 67.4015 50.8351 67.4347 50.8412 67.4671C50.8605 67.4693 50.88 67.4705 50.8998 67.4705H66.2898C66.5839 67.4705 66.8224 67.2321 66.8224 66.9378V64.4737C66.8224 64.4395 66.8189 64.4062 66.8127 64.3738C66.7935 64.3717 66.774 64.3705 66.7542 64.3705H51.3642Z" fill="url(#paint76_linear_2001_9)"/>
<path d="M30.1231 41.5567C28.6511 42.5159 27.3953 43.7794 26.4442 45.2575C26.2303 45.5898 25.7367 45.589 25.5241 45.2558C24.5784 43.7744 23.3271 42.5063 21.8587 41.5417C21.5327 41.3276 21.5336 40.8408 21.8604 40.6279C23.3323 39.6687 24.5882 38.4052 25.5393 36.9272C25.7531 36.5948 26.2467 36.5957 26.4594 36.9289C27.4051 38.4103 28.6563 39.6784 30.1249 40.643C30.4508 40.857 30.4499 41.3439 30.1231 41.5567Z" fill="url(#paint77_linear_2001_9)"/>
<path d="M35.9865 28.2051C34.9457 28.8834 34.0575 29.7768 33.385 30.8221C33.2337 31.0571 32.8847 31.0565 32.7343 30.8209C32.0656 29.7733 31.1807 28.8766 30.1422 28.1945C29.9117 28.0431 29.9123 27.6988 30.1434 27.5482C31.1843 26.8699 32.0724 25.9764 32.745 24.9311C32.8962 24.6961 33.2453 24.6967 33.3957 24.9323C34.0644 25.98 34.9493 26.8766 35.9877 27.5588C36.2182 27.7102 36.2176 28.0545 35.9865 28.2051Z" fill="url(#paint78_linear_2001_9)"/>
<path d="M64.258 30.6191C63.2171 31.2974 62.329 32.1909 61.6565 33.2362C61.5052 33.4712 61.1562 33.4706 61.0058 33.235C60.337 32.1874 59.4521 31.2907 58.4137 30.6085C58.1832 30.4572 58.1838 30.1128 58.4149 29.9623C59.4558 29.2839 60.3439 28.3905 61.0165 27.3452C61.1677 27.1102 61.5168 27.1108 61.6671 27.3464C62.336 28.394 63.2208 29.2907 64.2592 29.9728C64.4897 30.1243 64.4891 30.4685 64.258 30.6191Z" fill="url(#paint79_linear_2001_9)"/>
</g>
<defs>
<filter id="filter0_d_2001_9" x="0" y="0" width="92" height="96" filterUnits="userSpaceOnUse" color-interpolation-filters="sRGB">
<feFlood flood-opacity="0" result="BackgroundImageFix"/>
<feColorMatrix in="SourceAlpha" type="matrix" values="0 0 0 0 0 0 0 0 0 0 0 0 0 0 0 0 0 0 127 0" result="hardAlpha"/>
<feOffset dy="4"/>
<feComposite in2="hardAlpha" operator="out"/>
<feColorMatrix type="matrix" values="0 0 0 0 1 0 0 0 0 0.274167 0 0 0 0 0.30731 0 0 0 1 0"/>
<feBlend mode="normal" in2="BackgroundImageFix" result="effect1_dropShadow_2001_9"/>
<feBlend mode="normal" in="SourceGraphic" in2="effect1_dropShadow_2001_9" result="shape"/>
</filter>
<linearGradient id="paint0_linear_2001_9" x1="62.2623" y1="59.1083" x2="62.2623" y2="63.6842" gradientUnits="userSpaceOnUse">
<stop stop-color="#E4F2FF"/>
<stop offset="1" stop-color="#B2CBFF"/>
</linearGradient>
<linearGradient id="paint1_linear_2001_9" x1="62.263" y1="59.1745" x2="62.263" y2="66.8704" gradientUnits="userSpaceOnUse">
<stop stop-color="#3F3CED" stop-opacity="0"/>
<stop offset="0.2796" stop-color="#3C3DE4" stop-opacity="0.28"/>
<stop offset="0.7305" stop-color="#3541CC" stop-opacity="0.731"/>
<stop offset="1" stop-color="#2F43BB"/>
</linearGradient>
<linearGradient id="paint2_linear_2001_9" x1="62.2628" y1="59.1745" x2="62.2628" y2="66.8704" gradientUnits="userSpaceOnUse">
<stop stop-color="#3F3CED" stop-opacity="0"/>
<stop offset="0.2796" stop-color="#3C3DE4" stop-opacity="0.28"/>
<stop offset="0.7305" stop-color="#3541CC" stop-opacity="0.731"/>
<stop offset="1" stop-color="#2F43BB"/>
</linearGradient>
<linearGradient id="paint3_linear_2001_9" x1="62.2442" y1="60.4074" x2="60.4195" y2="55.9949" gradientUnits="userSpaceOnUse">
<stop stop-color="white" stop-opacity="0"/>
<stop offset="1" stop-color="white"/>
</linearGradient>
<linearGradient id="paint4_linear_2001_9" x1="62.2623" y1="55.5788" x2="62.2623" y2="60.1548" gradientUnits="userSpaceOnUse">
<stop stop-color="#E4F2FF"/>
<stop offset="1" stop-color="#B2CBFF"/>
</linearGradient>
<linearGradient id="paint5_linear_2001_9" x1="62.263" y1="55.6452" x2="62.263" y2="63.341" gradientUnits="userSpaceOnUse">
<stop stop-color="#3F3CED" stop-opacity="0"/>
<stop offset="0.2796" stop-color="#3C3DE4" stop-opacity="0.28"/>
<stop offset="0.7305" stop-color="#3541CC" stop-opacity="0.731"/>
<stop offset="1" stop-color="#2F43BB"/>
</linearGradient>
<linearGradient id="paint6_linear_2001_9" x1="62.2628" y1="55.6452" x2="62.2628" y2="63.341" gradientUnits="userSpaceOnUse">
<stop stop-color="#3F3CED" stop-opacity="0"/>
<stop offset="0.2796" stop-color="#3C3DE4" stop-opacity="0.28"/>
<stop offset="0.7305" stop-color="#3541CC" stop-opacity="0.731"/>
<stop offset="1" stop-color="#2F43BB"/>
</linearGradient>
<linearGradient id="paint7_linear_2001_9" x1="62.2442" y1="56.878" x2="60.4195" y2="52.4655" gradientUnits="userSpaceOnUse">
<stop stop-color="white" stop-opacity="0"/>
<stop offset="1" stop-color="white"/>
</linearGradient>
<linearGradient id="paint8_linear_2001_9" x1="62.2623" y1="52.0494" x2="62.2623" y2="56.6254" gradientUnits="userSpaceOnUse">
<stop stop-color="#E4F2FF"/>
<stop offset="1" stop-color="#B2CBFF"/>
</linearGradient>
<linearGradient id="paint9_linear_2001_9" x1="62.263" y1="52.1158" x2="62.263" y2="59.8116" gradientUnits="userSpaceOnUse">
<stop stop-color="#3F3CED" stop-opacity="0"/>
<stop offset="0.2796" stop-color="#3C3DE4" stop-opacity="0.28"/>
<stop offset="0.7305" stop-color="#3541CC" stop-opacity="0.731"/>
<stop offset="1" stop-color="#2F43BB"/>
</linearGradient>
<linearGradient id="paint10_linear_2001_9" x1="62.2628" y1="52.1158" x2="62.2628" y2="59.8116" gradientUnits="userSpaceOnUse">
<stop stop-color="#3F3CED" stop-opacity="0"/>
<stop offset="0.2796" stop-color="#3C3DE4" stop-opacity="0.28"/>
<stop offset="0.7305" stop-color="#3541CC" stop-opacity="0.731"/>
<stop offset="1" stop-color="#2F43BB"/>
</linearGradient>
<linearGradient id="paint11_linear_2001_9" x1="62.2442" y1="53.3487" x2="60.4195" y2="48.9362" gradientUnits="userSpaceOnUse">
<stop stop-color="white" stop-opacity="0"/>
<stop offset="1" stop-color="white"/>
</linearGradient>
<linearGradient id="paint12_linear_2001_9" x1="62.2623" y1="48.52" x2="62.2623" y2="53.096" gradientUnits="userSpaceOnUse">
<stop stop-color="#E4F2FF"/>
<stop offset="1" stop-color="#B2CBFF"/>
</linearGradient>
<linearGradient id="paint13_linear_2001_9" x1="62.263" y1="48.5864" x2="62.263" y2="56.2822" gradientUnits="userSpaceOnUse">
<stop stop-color="#3F3CED" stop-opacity="0"/>
<stop offset="0.2796" stop-color="#3C3DE4" stop-opacity="0.28"/>
<stop offset="0.7305" stop-color="#3541CC" stop-opacity="0.731"/>
<stop offset="1" stop-color="#2F43BB"/>
</linearGradient>
<linearGradient id="paint14_linear_2001_9" x1="62.2628" y1="48.5864" x2="62.2628" y2="56.2822" gradientUnits="userSpaceOnUse">
<stop stop-color="#3F3CED" stop-opacity="0"/>
<stop offset="0.2796" stop-color="#3C3DE4" stop-opacity="0.28"/>
<stop offset="0.7305" stop-color="#3541CC" stop-opacity="0.731"/>
<stop offset="1" stop-color="#2F43BB"/>
</linearGradient>
<linearGradient id="paint15_linear_2001_9" x1="62.2442" y1="49.8191" x2="60.4195" y2="45.4068" gradientUnits="userSpaceOnUse">
<stop stop-color="white" stop-opacity="0"/>
<stop offset="1" stop-color="white"/>
</linearGradient>
<linearGradient id="paint16_linear_2001_9" x1="62.2623" y1="44.9906" x2="62.2623" y2="49.5666" gradientUnits="userSpaceOnUse">
<stop stop-color="#E4F2FF"/>
<stop offset="1" stop-color="#B2CBFF"/>
</linearGradient>
<linearGradient id="paint17_linear_2001_9" x1="62.263" y1="45.057" x2="62.263" y2="52.7527" gradientUnits="userSpaceOnUse">
<stop stop-color="#3F3CED" stop-opacity="0"/>
<stop offset="0.2796" stop-color="#3C3DE4" stop-opacity="0.28"/>
<stop offset="0.7305" stop-color="#3541CC" stop-opacity="0.731"/>
<stop offset="1" stop-color="#2F43BB"/>
</linearGradient>
<linearGradient id="paint18_linear_2001_9" x1="62.2628" y1="45.057" x2="62.2628" y2="52.7527" gradientUnits="userSpaceOnUse">
<stop stop-color="#3F3CED" stop-opacity="0"/>
<stop offset="0.2796" stop-color="#3C3DE4" stop-opacity="0.28"/>
<stop offset="0.7305" stop-color="#3541CC" stop-opacity="0.731"/>
<stop offset="1" stop-color="#2F43BB"/>
</linearGradient>
<linearGradient id="paint19_linear_2001_9" x1="62.2442" y1="46.29" x2="60.4195" y2="41.8776" gradientUnits="userSpaceOnUse">
<stop stop-color="white" stop-opacity="0"/>
<stop offset="1" stop-color="white"/>
</linearGradient>
<linearGradient id="paint20_linear_2001_9" x1="62.2623" y1="41.4613" x2="62.2623" y2="46.0374" gradientUnits="userSpaceOnUse">
<stop stop-color="#E4F2FF"/>
<stop offset="1" stop-color="#B2CBFF"/>
</linearGradient>
<linearGradient id="paint21_linear_2001_9" x1="62.263" y1="41.5277" x2="62.263" y2="49.2236" gradientUnits="userSpaceOnUse">
<stop stop-color="#3F3CED" stop-opacity="0"/>
<stop offset="0.2796" stop-color="#3C3DE4" stop-opacity="0.28"/>
<stop offset="0.7305" stop-color="#3541CC" stop-opacity="0.731"/>
<stop offset="1" stop-color="#2F43BB"/>
</linearGradient>
<linearGradient id="paint22_linear_2001_9" x1="62.2628" y1="41.5277" x2="62.2628" y2="49.2236" gradientUnits="userSpaceOnUse">
<stop stop-color="#3F3CED" stop-opacity="0"/>
<stop offset="0.2796" stop-color="#3C3DE4" stop-opacity="0.28"/>
<stop offset="0.7305" stop-color="#3541CC" stop-opacity="0.731"/>
<stop offset="1" stop-color="#2F43BB"/>
</linearGradient>
<linearGradient id="paint23_linear_2001_9" x1="62.2442" y1="42.7603" x2="60.4195" y2="38.3479" gradientUnits="userSpaceOnUse">
<stop stop-color="white" stop-opacity="0"/>
<stop offset="1" stop-color="white"/>
</linearGradient>
<linearGradient id="paint24_linear_2001_9" x1="62.2623" y1="37.932" x2="62.2623" y2="42.508" gradientUnits="userSpaceOnUse">
<stop stop-color="#E4F2FF"/>
<stop offset="1" stop-color="#B2CBFF"/>
</linearGradient>
<linearGradient id="paint25_linear_2001_9" x1="62.263" y1="37.9981" x2="62.263" y2="45.694" gradientUnits="userSpaceOnUse">
<stop stop-color="#3F3CED" stop-opacity="0"/>
<stop offset="0.2796" stop-color="#3C3DE4" stop-opacity="0.28"/>
<stop offset="0.7305" stop-color="#3541CC" stop-opacity="0.731"/>
<stop offset="1" stop-color="#2F43BB"/>
</linearGradient>
<linearGradient id="paint26_linear_2001_9" x1="62.2628" y1="37.9983" x2="62.2628" y2="45.6942" gradientUnits="userSpaceOnUse">
<stop stop-color="#3F3CED" stop-opacity="0"/>
<stop offset="0.2796" stop-color="#3C3DE4" stop-opacity="0.28"/>
<stop offset="0.7305" stop-color="#3541CC" stop-opacity="0.731"/>
<stop offset="1" stop-color="#2F43BB"/>
</linearGradient>
<linearGradient id="paint27_linear_2001_9" x1="62.2442" y1="39.2311" x2="60.4195" y2="34.8186" gradientUnits="userSpaceOnUse">
<stop stop-color="white" stop-opacity="0"/>
<stop offset="1" stop-color="white"/>
</linearGradient>
<linearGradient id="paint28_linear_2001_9" x1="62.2623" y1="34.4023" x2="62.2623" y2="38.9783" gradientUnits="userSpaceOnUse">
<stop stop-color="#E4F2FF"/>
<stop offset="1" stop-color="#B2CBFF"/>
</linearGradient>
<linearGradient id="paint29_linear_2001_9" x1="62.263" y1="34.4687" x2="62.263" y2="42.1645" gradientUnits="userSpaceOnUse">
<stop stop-color="#3F3CED" stop-opacity="0"/>
<stop offset="0.2796" stop-color="#3C3DE4" stop-opacity="0.28"/>
<stop offset="0.7305" stop-color="#3541CC" stop-opacity="0.731"/>
<stop offset="1" stop-color="#2F43BB"/>
</linearGradient>
<linearGradient id="paint30_linear_2001_9" x1="62.2628" y1="34.4687" x2="62.2628" y2="42.1645" gradientUnits="userSpaceOnUse">
<stop stop-color="#3F3CED" stop-opacity="0"/>
<stop offset="0.2796" stop-color="#3C3DE4" stop-opacity="0.28"/>
<stop offset="0.7305" stop-color="#3541CC" stop-opacity="0.731"/>
<stop offset="1" stop-color="#2F43BB"/>
</linearGradient>
<linearGradient id="paint31_linear_2001_9" x1="62.2442" y1="35.7017" x2="60.4195" y2="31.2893" gradientUnits="userSpaceOnUse">
<stop stop-color="white" stop-opacity="0"/>
<stop offset="1" stop-color="white"/>
</linearGradient>
<radialGradient id="paint32_radial_2001_9" cx="0" cy="0" r="1" gradientUnits="userSpaceOnUse" gradientTransform="translate(40.4678 41.297) scale(33.0958 33.0958)">
<stop stop-color="#4AB272"/>
<stop offset="0.3386" stop-color="#47B071"/>
<stop offset="0.5502" stop-color="#3FA870"/>
<stop offset="0.727" stop-color="#309B6D"/>
<stop offset="0.8837" stop-color="#1C8869"/>
<stop offset="1" stop-color="#077565"/>
</radialGradient>
<linearGradient id="paint33_linear_2001_9" x1="34.1989" y1="56.6093" x2="33.1387" y2="89.6538" gradientUnits="userSpaceOnUse">
<stop stop-color="#005A01" stop-opacity="0"/>
<stop offset="1" stop-color="#005A01"/>
</linearGradient>
<linearGradient id="paint34_linear_2001_9" x1="43.85" y1="63.1199" x2="48.5625" y2="81.1059" gradientUnits="userSpaceOnUse">
<stop stop-color="#005A01" stop-opacity="0"/>
<stop offset="1" stop-color="#005A01"/>
</linearGradient>
<linearGradient id="paint35_linear_2001_9" x1="58.4311" y1="62.7667" x2="56.7033" y2="84.9153" gradientUnits="userSpaceOnUse">
<stop stop-color="#005A01" stop-opacity="0"/>
<stop offset="1" stop-color="#005A01"/>
</linearGradient>
<linearGradient id="paint36_linear_2001_9" x1="44.0589" y1="49.833" x2="21.9104" y2="10.2484" gradientUnits="userSpaceOnUse">
<stop stop-color="#91F27F" stop-opacity="0"/>
<stop offset="1" stop-color="#FFED82"/>
</linearGradient>
<linearGradient id="paint37_linear_2001_9" x1="59.5095" y1="57.4987" x2="31.4432" y2="41.618" gradientUnits="userSpaceOnUse">
<stop stop-color="#005A01" stop-opacity="0"/>
<stop offset="1" stop-color="#005A01"/>
</linearGradient>
<linearGradient id="paint38_linear_2001_9" x1="43.1425" y1="45.0735" x2="58.516" y2="58.3265" gradientUnits="userSpaceOnUse">
<stop stop-color="#FFC738"/>
<stop offset="0.1876" stop-color="#FDBF3C"/>
<stop offset="0.4837" stop-color="#F7A848"/>
<stop offset="0.8493" stop-color="#ED835B"/>
<stop offset="1" stop-color="#E97264"/>
</linearGradient>
<linearGradient id="paint39_linear_2001_9" x1="44.5847" y1="19.512" x2="49.7684" y2="30.4685" gradientUnits="userSpaceOnUse">
<stop stop-color="#4AB272"/>
<stop offset="0.3386" stop-color="#47B071"/>
<stop offset="0.5502" stop-color="#3FA870"/>
<stop offset="0.727" stop-color="#309B6D"/>
<stop offset="0.8837" stop-color="#1C8869"/>
<stop offset="1" stop-color="#077565"/>
</linearGradient>
<linearGradient id="paint40_linear_2001_9" x1="46.2874" y1="25.2955" x2="53.2775" y2="36.1342" gradientUnits="userSpaceOnUse">
<stop stop-color="#005A01" stop-opacity="0"/>
<stop offset="1" stop-color="#005A01"/>
</linearGradient>
<linearGradient id="paint41_linear_2001_9" x1="46.6297" y1="21.3658" x2="46.9831" y2="24.8412" gradientUnits="userSpaceOnUse">
<stop stop-color="#005A01" stop-opacity="0"/>
<stop offset="1" stop-color="#005A01"/>
</linearGradient>
<linearGradient id="paint42_linear_2001_9" x1="45.0964" y1="25.6423" x2="31.7247" y2="25.4067" gradientUnits="userSpaceOnUse">
<stop stop-color="#91F27F" stop-opacity="0"/>
<stop offset="1" stop-color="#FFED82"/>
</linearGradient>
<linearGradient id="paint43_linear_2001_9" x1="46.3587" y1="29.5944" x2="46.3587" y2="31.2605" gradientUnits="userSpaceOnUse">
<stop stop-color="#FFC738"/>
<stop offset="0.1876" stop-color="#FDBF3C"/>
<stop offset="0.4837" stop-color="#F7A848"/>
<stop offset="0.8493" stop-color="#ED835B"/>
<stop offset="1" stop-color="#E97264"/>
</linearGradient>
<linearGradient id="paint44_linear_2001_9" x1="45.0658" y1="60.5165" x2="34.6984" y2="59.6525" gradientUnits="userSpaceOnUse">
<stop stop-color="#005A01" stop-opacity="0"/>
<stop offset="1" stop-color="#005A01"/>
</linearGradient>
<linearGradient id="paint45_linear_2001_9" x1="29.7374" y1="67.5433" x2="29.7374" y2="72.1193" gradientUnits="userSpaceOnUse">
<stop stop-color="#FFD945"/>
<stop offset="0.3043" stop-color="#FFCD3E"/>
<stop offset="0.8558" stop-color="#FFAD2B"/>
<stop offset="1" stop-color="#FFA325"/>
</linearGradient>
<linearGradient id="paint46_linear_2001_9" x1="29.7371" y1="67.6097" x2="29.7371" y2="75.3055" gradientUnits="userSpaceOnUse">
<stop stop-color="#E87264" stop-opacity="0"/>
<stop offset="1" stop-color="#FF7044"/>
</linearGradient>
<linearGradient id="paint47_linear_2001_9" x1="29.7369" y1="67.6097" x2="29.7369" y2="75.3055" gradientUnits="userSpaceOnUse">
<stop stop-color="#E87264" stop-opacity="0"/>
<stop offset="1" stop-color="#FF7044"/>
</linearGradient>
<linearGradient id="paint48_linear_2001_9" x1="29.7183" y1="68.8425" x2="27.8937" y2="64.43" gradientUnits="userSpaceOnUse">
<stop stop-color="#FFD945" stop-opacity="0"/>
<stop offset="1" stop-color="#FBED21"/>
</linearGradient>
<linearGradient id="paint49_linear_2001_9" x1="29.7374" y1="64.0139" x2="29.7374" y2="68.5899" gradientUnits="userSpaceOnUse">
<stop stop-color="#FFD945"/>
<stop offset="0.3043" stop-color="#FFCD3E"/>
<stop offset="0.8558" stop-color="#FFAD2B"/>
<stop offset="1" stop-color="#FFA325"/>
</linearGradient>
<linearGradient id="paint50_linear_2001_9" x1="29.7371" y1="64.0803" x2="29.7371" y2="71.776" gradientUnits="userSpaceOnUse">
<stop stop-color="#E87264" stop-opacity="0"/>
<stop offset="1" stop-color="#FF7044"/>
</linearGradient>
<linearGradient id="paint51_linear_2001_9" x1="29.7369" y1="64.0803" x2="29.7369" y2="71.7761" gradientUnits="userSpaceOnUse">
<stop stop-color="#E87264" stop-opacity="0"/>
<stop offset="1" stop-color="#FF7044"/>
</linearGradient>
<linearGradient id="paint52_linear_2001_9" x1="29.7183" y1="65.313" x2="27.8937" y2="60.9007" gradientUnits="userSpaceOnUse">
<stop stop-color="#FFD945" stop-opacity="0"/>
<stop offset="1" stop-color="#FBED21"/>
</linearGradient>
<linearGradient id="paint53_linear_2001_9" x1="29.7374" y1="60.4845" x2="29.7374" y2="65.0605" gradientUnits="userSpaceOnUse">
<stop stop-color="#FFD945"/>
<stop offset="0.3043" stop-color="#FFCD3E"/>
<stop offset="0.8558" stop-color="#FFAD2B"/>
<stop offset="1" stop-color="#FFA325"/>
</linearGradient>
<linearGradient id="paint54_linear_2001_9" x1="29.7371" y1="60.5509" x2="29.7371" y2="68.2466" gradientUnits="userSpaceOnUse">
<stop stop-color="#E87264" stop-opacity="0"/>
<stop offset="1" stop-color="#FF7044"/>
</linearGradient>
<linearGradient id="paint55_linear_2001_9" x1="29.7369" y1="60.5509" x2="29.7369" y2="68.2466" gradientUnits="userSpaceOnUse">
<stop stop-color="#E87264" stop-opacity="0"/>
<stop offset="1" stop-color="#FF7044"/>
</linearGradient>
<linearGradient id="paint56_linear_2001_9" x1="29.7183" y1="61.7837" x2="27.8937" y2="57.3714" gradientUnits="userSpaceOnUse">
<stop stop-color="#FFD945" stop-opacity="0"/>
<stop offset="1" stop-color="#FBED21"/>
</linearGradient>
<linearGradient id="paint57_linear_2001_9" x1="29.7374" y1="56.9552" x2="29.7374" y2="61.5313" gradientUnits="userSpaceOnUse">
<stop stop-color="#FFD945"/>
<stop offset="0.3043" stop-color="#FFCD3E"/>
<stop offset="0.8558" stop-color="#FFAD2B"/>
<stop offset="1" stop-color="#FFA325"/>
</linearGradient>
<linearGradient id="paint58_linear_2001_9" x1="29.7371" y1="57.0213" x2="29.7371" y2="64.7172" gradientUnits="userSpaceOnUse">
<stop stop-color="#E87264" stop-opacity="0"/>
<stop offset="1" stop-color="#FF7044"/>
</linearGradient>
<linearGradient id="paint59_linear_2001_9" x1="29.7369" y1="57.0216" x2="29.7369" y2="64.7174" gradientUnits="userSpaceOnUse">
<stop stop-color="#E87264" stop-opacity="0"/>
<stop offset="1" stop-color="#FF7044"/>
</linearGradient>
<linearGradient id="paint60_linear_2001_9" x1="29.7183" y1="58.2542" x2="27.8937" y2="53.8418" gradientUnits="userSpaceOnUse">
<stop stop-color="#FFD945" stop-opacity="0"/>
<stop offset="1" stop-color="#FBED21"/>
</linearGradient>
<linearGradient id="paint61_linear_2001_9" x1="29.7374" y1="53.4258" x2="29.7374" y2="58.0018" gradientUnits="userSpaceOnUse">
<stop stop-color="#FFD945"/>
<stop offset="0.3043" stop-color="#FFCD3E"/>
<stop offset="0.8558" stop-color="#FFAD2B"/>
<stop offset="1" stop-color="#FFA325"/>
</linearGradient>
<linearGradient id="paint62_linear_2001_9" x1="29.7371" y1="53.492" x2="29.7371" y2="61.1879" gradientUnits="userSpaceOnUse">
<stop stop-color="#E87264" stop-opacity="0"/>
<stop offset="1" stop-color="#FF7044"/>
</linearGradient>
<linearGradient id="paint63_linear_2001_9" x1="29.7369" y1="53.492" x2="29.7369" y2="61.1879" gradientUnits="userSpaceOnUse">
<stop stop-color="#E87264" stop-opacity="0"/>
<stop offset="1" stop-color="#FF7044"/>
</linearGradient>
<linearGradient id="paint64_linear_2001_9" x1="29.7183" y1="54.7251" x2="27.8937" y2="50.3127" gradientUnits="userSpaceOnUse">
<stop stop-color="#FFD945" stop-opacity="0"/>
<stop offset="1" stop-color="#FBED21"/>
</linearGradient>
<linearGradient id="paint65_linear_2001_9" x1="29.7374" y1="49.8964" x2="29.7374" y2="54.4723" gradientUnits="userSpaceOnUse">
<stop stop-color="#FFD945"/>
<stop offset="0.3043" stop-color="#FFCD3E"/>
<stop offset="0.8558" stop-color="#FFAD2B"/>
<stop offset="1" stop-color="#FFA325"/>
</linearGradient>
<linearGradient id="paint66_linear_2001_9" x1="29.7371" y1="49.9627" x2="29.7371" y2="57.6586" gradientUnits="userSpaceOnUse">
<stop stop-color="#E87264" stop-opacity="0"/>
<stop offset="1" stop-color="#FF7044"/>
</linearGradient>
<linearGradient id="paint67_linear_2001_9" x1="29.7369" y1="49.9626" x2="29.7369" y2="57.6585" gradientUnits="userSpaceOnUse">
<stop stop-color="#E87264" stop-opacity="0"/>
<stop offset="1" stop-color="#FF7044"/>
</linearGradient>
<linearGradient id="paint68_linear_2001_9" x1="29.7183" y1="51.1956" x2="27.8937" y2="46.7832" gradientUnits="userSpaceOnUse">
<stop stop-color="#FFD945" stop-opacity="0"/>
<stop offset="1" stop-color="#FBED21"/>
</linearGradient>
<linearGradient id="paint69_linear_2001_9" x1="58.5948" y1="67.5433" x2="58.5948" y2="72.1193" gradientUnits="userSpaceOnUse">
<stop stop-color="#FFD945"/>
<stop offset="0.3043" stop-color="#FFCD3E"/>
<stop offset="0.8558" stop-color="#FFAD2B"/>
<stop offset="1" stop-color="#FFA325"/>
</linearGradient>
<linearGradient id="paint70_linear_2001_9" x1="58.5945" y1="67.6097" x2="58.5945" y2="75.3055" gradientUnits="userSpaceOnUse">
<stop stop-color="#E87264" stop-opacity="0"/>
<stop offset="1" stop-color="#FF7044"/>
</linearGradient>
<linearGradient id="paint71_linear_2001_9" x1="58.5944" y1="67.6097" x2="58.5944" y2="75.3055" gradientUnits="userSpaceOnUse">
<stop stop-color="#E87264" stop-opacity="0"/>
<stop offset="1" stop-color="#FF7044"/>
</linearGradient>
<linearGradient id="paint72_linear_2001_9" x1="58.5758" y1="68.8425" x2="56.7512" y2="64.43" gradientUnits="userSpaceOnUse">
<stop stop-color="#FFD945" stop-opacity="0"/>
<stop offset="1" stop-color="#FBED21"/>
</linearGradient>
<linearGradient id="paint73_linear_2001_9" x1="58.5948" y1="64.0139" x2="58.5948" y2="68.5899" gradientUnits="userSpaceOnUse">
<stop stop-color="#FFD945"/>
<stop offset="0.3043" stop-color="#FFCD3E"/>
<stop offset="0.8558" stop-color="#FFAD2B"/>
<stop offset="1" stop-color="#FFA325"/>
</linearGradient>
<linearGradient id="paint74_linear_2001_9" x1="58.5945" y1="64.0803" x2="58.5945" y2="71.776" gradientUnits="userSpaceOnUse">
<stop stop-color="#E87264" stop-opacity="0"/>
<stop offset="1" stop-color="#FF7044"/>
</linearGradient>
<linearGradient id="paint75_linear_2001_9" x1="58.5944" y1="64.0803" x2="58.5944" y2="71.7761" gradientUnits="userSpaceOnUse">
<stop stop-color="#E87264" stop-opacity="0"/>
<stop offset="1" stop-color="#FF7044"/>
</linearGradient>
<linearGradient id="paint76_linear_2001_9" x1="58.5758" y1="65.313" x2="56.7512" y2="60.9007" gradientUnits="userSpaceOnUse">
<stop stop-color="#FFD945" stop-opacity="0"/>
<stop offset="1" stop-color="#FBED21"/>
</linearGradient>
<linearGradient id="paint77_linear_2001_9" x1="24.561" y1="39.183" x2="29.1922" y2="45.3838" gradientUnits="userSpaceOnUse">
<stop stop-color="#FFD945"/>
<stop offset="0.3043" stop-color="#FFCD3E"/>
<stop offset="0.8558" stop-color="#FFAD2B"/>
<stop offset="1" stop-color="#FFA325"/>
</linearGradient>
<linearGradient id="paint78_linear_2001_9" x1="32.0547" y1="26.5281" x2="35.3297" y2="30.913" gradientUnits="userSpaceOnUse">
<stop stop-color="#FFD945"/>
<stop offset="0.3043" stop-color="#FFCD3E"/>
<stop offset="0.8558" stop-color="#FFAD2B"/>
<stop offset="1" stop-color="#FFA325"/>
</linearGradient>
<linearGradient id="paint79_linear_2001_9" x1="60.3257" y1="28.9479" x2="63.6007" y2="33.3328" gradientUnits="userSpaceOnUse">
<stop stop-color="#FFD945"/>
<stop offset="0.3043" stop-color="#FFCD3E"/>
<stop offset="0.8558" stop-color="#FFAD2B"/>
<stop offset="1" stop-color="#FFA325"/>
</linearGradient>
<clipPath id="clip0_2001_9">
<rect width="50" height="50" fill="white" transform="translate(21 21)"/>
</clipPath>
</defs>
</svg>
