<svg width="92" height="96" viewBox="0 0 92 96" fill="none" xmlns="http://www.w3.org/2000/svg">
<g filter="url(#filter0_d_2001_10)">
<circle cx="46" cy="46" r="46" fill="white"/>
</g>
<g clip-path="url(#clip0_2001_10)">
<path d="M52.0366 64.95H66.7501C67.6518 64.95 68.5166 64.5918 69.1543 63.9541C69.7919 63.3165 70.1501 62.4517 70.1501 61.55V29.25C70.1501 28.3482 69.7919 27.4834 69.1543 26.8458C68.5166 26.2082 67.6518 25.85 66.7501 25.85H24.2501C23.3484 25.85 22.4836 26.2082 21.8459 26.8458C21.2083 27.4834 20.8501 28.3482 20.8501 29.25V61.55C20.8501 62.4517 21.2083 63.3165 21.8459 63.9541C22.4836 64.5918 23.3484 64.95 24.2501 64.95H52.0366Z" fill="#A56A43"/>
<path d="M65.9 29.25H25.1C24.6306 29.25 24.25 29.6306 24.25 30.1V60.7C24.25 61.1694 24.6306 61.55 25.1 61.55H65.9C66.3694 61.55 66.75 61.1694 66.75 60.7V30.1C66.75 29.6306 66.3694 29.25 65.9 29.25Z" fill="#F9EAB0"/>
<path d="M44.6499 29.25H46.3499V38.6H44.6499V29.25Z" fill="#D25627"/>
<path d="M42.1 29.25V32.7945C42.1008 33.1307 42.0352 33.4637 41.9068 33.7744C41.7784 34.0852 41.5899 34.3674 41.352 34.605L38.1985 37.75L37 36.5515L40.145 33.398C40.2253 33.3193 40.2892 33.2254 40.333 33.1218C40.3768 33.0182 40.3995 32.907 40.4 32.7945V29.25H42.1Z" fill="#D25627"/>
<path d="M53.9999 36.5515L52.8014 37.75L49.6479 34.605C49.41 34.3674 49.2215 34.0852 49.0931 33.7744C48.9647 33.4637 48.8991 33.1307 48.8999 32.7945V29.25H50.5999V32.7945C50.6004 32.907 50.6232 33.0182 50.6669 33.1218C50.7107 33.2254 50.7746 33.3193 50.8549 33.398L53.9999 36.5515Z" fill="#D25627"/>
<path d="M33.5998 45.4H31.8998C31.6744 45.4 31.4582 45.3104 31.2988 45.151C31.1394 44.9916 31.0498 44.7754 31.0498 44.55C31.0498 44.3245 31.1394 44.1083 31.2988 43.9489C31.4582 43.7895 31.6744 43.7 31.8998 43.7H33.5998C33.8252 43.7 34.0414 43.7895 34.2008 43.9489C34.3603 44.1083 34.4498 44.3245 34.4498 44.55C34.4498 44.7754 34.3603 44.9916 34.2008 45.151C34.0414 45.3104 33.8252 45.4 33.5998 45.4Z" fill="#603E26"/>
<path d="M59.0998 45.4H57.3998C57.1744 45.4 56.9582 45.3104 56.7988 45.151C56.6394 44.9916 56.5498 44.7754 56.5498 44.55C56.5498 44.3245 56.6394 44.1083 56.7988 43.9489C56.9582 43.7895 57.1744 43.7 57.3998 43.7H59.0998C59.3252 43.7 59.5414 43.7895 59.7008 43.9489C59.8603 44.1083 59.9498 44.3245 59.9498 44.55C59.9498 44.7754 59.8603 44.9916 59.7008 45.151C59.5414 45.3104 59.3252 45.4 59.0998 45.4Z" fill="#603E26"/>
<path d="M53.9999 45.4H36.9999C36.7745 45.4 36.5583 45.3104 36.3989 45.151C36.2395 44.9916 36.1499 44.7754 36.1499 44.55C36.1499 44.3245 36.2395 44.1083 36.3989 43.9489C36.5583 43.7895 36.7745 43.7 36.9999 43.7H53.9999C54.2253 43.7 54.4415 43.7895 54.6009 43.9489C54.7603 44.1083 54.8499 44.3245 54.8499 44.55C54.8499 44.7754 54.7603 44.9916 54.6009 45.151C54.4415 45.3104 54.2253 45.4 53.9999 45.4Z" fill="#603E26"/>
<path d="M48.9 48.8H42.1C41.8746 48.8 41.6584 48.7104 41.499 48.551C41.3396 48.3916 41.25 48.1754 41.25 47.95C41.25 47.7245 41.3396 47.5083 41.499 47.3489C41.6584 47.1895 41.8746 47.1 42.1 47.1H48.9C49.1254 47.1 49.3416 47.1895 49.501 47.3489C49.6604 47.5083 49.75 47.7245 49.75 47.95C49.75 48.1754 49.6604 48.3916 49.501 48.551C49.3416 48.7104 49.1254 48.8 48.9 48.8Z" fill="#603E26"/>
<path d="M33.5999 53.0499H28.4999C28.0305 53.0499 27.6499 53.4305 27.6499 53.8999V55.5999C27.6499 56.0694 28.0305 56.4499 28.4999 56.4499H33.5999C34.0693 56.4499 34.4499 56.0694 34.4499 55.5999V53.8999C34.4499 53.4305 34.0693 53.0499 33.5999 53.0499Z" fill="white"/>
<path d="M62.4998 53.0499H57.3998C56.9304 53.0499 56.5498 53.4305 56.5498 53.8999V55.5999C56.5498 56.0694 56.9304 56.4499 57.3998 56.4499H62.4998C62.9692 56.4499 63.3498 56.0694 63.3498 55.5999V53.8999C63.3498 53.4305 62.9692 53.0499 62.4998 53.0499Z" fill="white"/>
<path d="M44.8797 68.265L42.6782 74.861C42.6503 74.946 42.5962 75.02 42.5237 75.0725C42.4512 75.125 42.364 75.1533 42.2745 75.1533C42.185 75.1533 42.0977 75.125 42.0252 75.0725C41.9527 75.02 41.8987 74.946 41.8707 74.861L41.1057 72.5745C41.086 72.5119 41.0518 72.4549 41.0058 72.4081C40.9598 72.3614 40.9034 72.3262 40.8412 72.3055C40.779 72.2847 40.7128 72.279 40.6479 72.2888C40.5831 72.2987 40.5215 72.3237 40.4682 72.362L38.4877 73.7305C38.4143 73.7817 38.3267 73.8085 38.2372 73.807C38.1477 73.8055 38.0609 73.7757 37.9893 73.722C37.9177 73.6683 37.8649 73.5934 37.8384 73.5079C37.8119 73.4224 37.8131 73.3307 37.8417 73.246L37.9437 72.94L40.2217 66.106L44.8797 68.265Z" fill="#C03A2B"/>
<path d="M50.7532 66.1315L53.1247 73.246C53.1534 73.3308 53.1545 73.4224 53.128 73.5079C53.1015 73.5934 53.0487 73.6684 52.9771 73.7221C52.9055 73.7758 52.8188 73.8055 52.7293 73.807C52.6398 73.8085 52.5521 73.7817 52.4787 73.7305L50.4982 72.362C50.4449 72.3237 50.3833 72.2987 50.3185 72.2889C50.2537 72.279 50.1874 72.2847 50.1252 72.3055C50.063 72.3262 50.0066 72.3614 49.9606 72.4082C49.9146 72.4549 49.8804 72.5119 49.8607 72.5745L49.0957 74.861C49.0678 74.946 49.0137 75.02 48.9412 75.0725C48.8687 75.125 48.7815 75.1533 48.692 75.1533C48.6025 75.1533 48.5152 75.125 48.4427 75.0725C48.3702 75.02 48.3162 74.946 48.2882 74.861L46.0952 68.2735L50.7532 66.1315Z" fill="#C03A2B"/>
<path d="M53.5965 61.2176C53.3073 61.6604 53.1668 62.1838 53.1953 62.7119C53.217 63.1966 53.0998 63.6773 52.8573 64.0975C52.6148 64.5177 52.2573 64.8597 51.8268 65.0834C51.3553 65.3238 50.9711 65.7061 50.7286 66.1765C50.5178 66.5905 50.1964 66.9379 49.8002 67.1804C49.4039 67.4228 48.9483 67.5508 48.4837 67.5501C48.3987 67.5501 48.3188 67.5391 48.2355 67.5391C47.7481 67.5381 47.2709 67.6796 46.8628 67.9462C46.4562 68.2096 45.9821 68.3497 45.4977 68.3497C45.0133 68.3497 44.5392 68.2096 44.1326 67.9462C43.6898 67.6571 43.1664 67.5165 42.6383 67.545C42.1536 67.5672 41.6727 67.4501 41.2524 67.2076C40.8322 66.9651 40.4901 66.6073 40.2668 66.1765C40.0265 65.705 39.6441 65.3208 39.1737 65.0783C38.7598 64.8675 38.4123 64.5461 38.1699 64.1499C37.9274 63.7537 37.7994 63.298 37.8001 62.8335C37.8001 62.7485 37.8111 62.6686 37.8111 62.5853C37.8121 62.0978 37.6706 61.6206 37.404 61.2125C37.1406 60.8059 37.0005 60.3319 37.0005 59.8474C37.0005 59.363 37.1406 58.8889 37.404 58.4823C37.6933 58.0393 37.8338 57.5155 37.8052 56.9872C37.8052 56.9455 37.8001 56.9081 37.8001 56.8665C37.7999 56.4014 37.928 55.9452 38.1704 55.5483C38.4127 55.1513 38.7599 54.8289 39.1737 54.6165C39.6452 54.3762 40.0294 53.9938 40.2719 53.5234C40.4827 53.1095 40.8041 52.762 41.2003 52.5196C41.5966 52.2771 42.0522 52.1491 42.5167 52.1498C42.6017 52.1498 42.6816 52.1609 42.7649 52.1609C43.2524 52.1619 43.7296 52.0203 44.1377 51.7537C44.5443 51.4904 45.0184 51.3502 45.5028 51.3502C45.9872 51.3502 46.4613 51.4904 46.8679 51.7537C47.3547 52.0439 47.9171 52.1818 48.4829 52.1498C48.948 52.1496 49.4041 52.2778 49.8011 52.5201C50.1981 52.7625 50.5205 53.1096 50.7328 53.5234C50.9732 53.995 51.3555 54.3791 51.8259 54.6216C52.2399 54.8325 52.5873 55.1538 52.8298 55.5501C53.0722 55.9463 53.2002 56.4019 53.1995 56.8665C53.1995 56.9515 53.1885 57.0314 53.1885 57.1147C53.1875 57.6022 53.329 58.0793 53.5956 58.4874C53.8591 58.8939 53.9994 59.368 53.9996 59.8524C53.9997 60.3368 53.8597 60.811 53.5965 61.2176Z" fill="#E64C3C"/>
<path d="M45.4999 64.95C48.3166 64.95 50.5999 62.6667 50.5999 59.85C50.5999 57.0333 48.3166 54.75 45.4999 54.75C42.6833 54.75 40.3999 57.0333 40.3999 59.85C40.3999 62.6667 42.6833 64.95 45.4999 64.95Z" fill="#F0C419"/>
<path d="M31.05 29.25L24.25 36.05V30.1C24.25 29.8746 24.3396 29.6584 24.499 29.499C24.6584 29.3396 24.8746 29.25 25.1 29.25H31.05Z" fill="#E4C05C"/>
<path d="M66.7502 30.1V36.05L59.9502 29.25H65.9002C66.1256 29.25 66.3418 29.3396 66.5012 29.499C66.6606 29.6584 66.7502 29.8746 66.7502 30.1Z" fill="#E4C05C"/>
<path d="M45.4998 40.3C46.4387 40.3 47.1998 39.5389 47.1998 38.6C47.1998 37.6611 46.4387 36.9 45.4998 36.9C44.5609 36.9 43.7998 37.6611 43.7998 38.6C43.7998 39.5389 44.5609 40.3 45.4998 40.3Z" fill="#F0C419"/>
<path d="M37.0003 39.45C37.9392 39.45 38.7003 38.6889 38.7003 37.75C38.7003 36.8112 37.9392 36.05 37.0003 36.05C36.0614 36.05 35.3003 36.8112 35.3003 37.75C35.3003 38.6889 36.0614 39.45 37.0003 39.45Z" fill="#F0C419"/>
<path d="M53.9998 39.45C54.9387 39.45 55.6998 38.6889 55.6998 37.75C55.6998 36.8112 54.9387 36.05 53.9998 36.05C53.0609 36.05 52.2998 36.8112 52.2998 37.75C52.2998 38.6889 53.0609 39.45 53.9998 39.45Z" fill="#F0C419"/>
</g>
<defs>
<filter id="filter0_d_2001_10" x="0" y="0" width="92" height="96" filterUnits="userSpaceOnUse" color-interpolation-filters="sRGB">
<feFlood flood-opacity="0" result="BackgroundImageFix"/>
<feColorMatrix in="SourceAlpha" type="matrix" values="0 0 0 0 0 0 0 0 0 0 0 0 0 0 0 0 0 0 127 0" result="hardAlpha"/>
<feOffset dy="4"/>
<feComposite in2="hardAlpha" operator="out"/>
<feColorMatrix type="matrix" values="0 0 0 0 1 0 0 0 0 0.274167 0 0 0 0 0.30731 0 0 0 1 0"/>
<feBlend mode="normal" in2="BackgroundImageFix" result="effect1_dropShadow_2001_10"/>
<feBlend mode="normal" in="SourceGraphic" in2="effect1_dropShadow_2001_10" result="shape"/>
</filter>
<clipPath id="clip0_2001_10">
<rect width="51" height="51" fill="white" transform="translate(20 25)"/>
</clipPath>
</defs>
</svg>
