<svg width="92" height="96" viewBox="0 0 92 96" fill="none" xmlns="http://www.w3.org/2000/svg">
<g filter="url(#filter0_d_2001_8)">
<circle cx="46" cy="46" r="46" fill="white"/>
</g>
<g clip-path="url(#clip0_2001_8)">
<path d="M60.0709 69.3735C59.5652 69.8793 58.9034 70.1316 58.2417 70.1316C57.5789 70.1316 56.9159 69.8793 56.4112 69.3735C57.4217 70.3839 57.4217 72.0217 56.4112 73.0332C55.9066 73.5378 55.2438 73.7913 54.5808 73.7913C53.9191 73.7913 53.2573 73.5378 52.7516 73.0332L51.0691 71.3507C52.0795 72.3611 52.0795 73.9999 51.0691 75.0104C50.5644 75.515 49.9016 75.7684 49.2398 75.7684C48.5781 75.7684 47.9164 75.5149 47.4106 75.0115V75.0104H47.4095C41.5535 79.3982 28.8976 64.5565 25.4823 60.3336L24.1943 54.4651L31.9598 45.3817C37.5222 44.0743 42.7749 44.9207 42.7749 44.9207L52.3364 50.935L60.0709 65.7137C61.0814 66.7242 61.0814 68.3632 60.0709 69.3735Z" fill="#F1D0A5"/>
<path d="M47.4096 75.0104C41.5536 79.3983 28.8977 64.5566 25.4824 60.3337L26.8667 57.1373C31.8396 64.3489 39.0363 72.0205 43.2774 70.877L47.4096 75.0104Z" fill="#F1B986"/>
<path d="M65.3616 59.3177C64.9889 60.4554 64.7893 61.5542 65.2573 62.5118V62.5129C63.1528 65.5775 60.8098 66.8493 60.7443 66.8849C60.6319 66.456 60.4071 66.05 60.0711 65.714L46.6698 52.3126C45.0125 52.8655 43.2486 54.346 41.9653 55.6053C41.3356 56.2224 40.511 56.5377 39.6807 56.5377C39.0017 56.5377 38.3194 56.3267 37.739 55.8977C37.6955 55.8657 37.6518 55.8324 37.6105 55.798C37.6094 55.7969 37.6082 55.7956 37.6071 55.7945C36.435 54.8334 36.0691 53.1784 36.7572 51.8125C39.5384 46.288 44.1466 43.9632 45.571 43.3543C45.8474 43.2361 46.1455 43.1788 46.446 43.1903C47.8268 43.2396 49.1928 43.5171 50.4911 43.9266C54.8802 45.3074 58.3554 47.7653 59.1995 48.4718C59.953 50.4479 65.5576 51.8573 66.3856 53.8013C67.0797 55.4287 65.981 57.4254 65.3616 59.3177Z" fill="#E2A770"/>
<path d="M65.2574 62.5118V62.5129C63.1529 65.5774 60.8099 66.8492 60.7444 66.8849C60.632 66.4559 60.4072 66.0499 60.0712 65.7139L51.9421 57.5848C54.8025 60.4452 60.991 61.6678 63.8525 59.562C64.2355 59.281 64.7528 59.2168 65.3617 59.3178C64.9891 60.4553 64.7895 61.5541 65.2574 62.5118Z" fill="#D5985C"/>
<path d="M37.6071 55.7945C36.435 54.8334 36.0691 53.1784 36.7572 51.8125C39.5384 46.288 44.1466 43.9632 45.571 43.3543C45.8474 43.2361 46.1455 43.1788 46.446 43.1903C47.8268 43.2396 49.1928 43.5171 50.4911 43.9266C44.3967 43.9301 35.8179 54.0363 37.6071 55.7945Z" fill="#D5985C"/>
<path d="M60.5172 68.7758C60.4015 68.9902 60.2523 69.1921 60.0711 69.3732C59.5654 69.879 58.9036 70.1314 58.2419 70.1314C57.5791 70.1314 56.9161 69.879 56.4115 69.3732L47.8628 60.8245C48.2371 60.1518 49.1509 60.0242 49.6951 60.5685L57.455 68.3295C57.9597 68.8353 58.6225 69.0876 59.2855 69.0876C59.7098 69.0877 60.1342 68.9845 60.5172 68.7758Z" fill="#F1B986"/>
<path d="M51.5577 74.3345C51.4351 74.5788 51.2733 74.807 51.0703 75.0101C50.5657 75.5147 49.9029 75.7681 49.2399 75.7681C48.5782 75.7681 47.9164 75.5146 47.4107 75.0101L40.4617 68.06C41.2918 67.5313 42.378 67.6503 43.0739 68.3463L48.5747 73.8471C49.0794 74.3518 49.7422 74.6053 50.4039 74.6053C50.7997 74.6053 51.1954 74.5147 51.5577 74.3345Z" fill="#F1B986"/>
<path d="M56.8381 72.4674C56.7257 72.6703 56.5824 72.8607 56.4103 73.0328C55.9045 73.5375 55.2428 73.791 54.581 73.791C53.9182 73.791 53.2552 73.5375 52.7506 73.0328L44.9333 65.214C45.5383 64.699 46.4374 64.7352 46.9992 65.297L52.0601 70.3583L53.7414 72.0408C54.2472 72.5465 54.9089 72.7989 55.5719 72.7989C56.0089 72.7988 56.4459 72.6887 56.8381 72.4674Z" fill="#F1B986"/>
<path d="M71.448 65.3844C74.6237 64.0076 74.9479 57.7015 72.1723 51.2994C69.3967 44.8973 64.5722 40.8235 61.3965 42.2003C58.2209 43.5771 57.8966 49.8832 60.6722 56.2853C63.4479 62.6874 68.2724 66.7612 71.448 65.3844Z" fill="#DA4A54"/>
<path d="M74.0001 60.2334C71.5515 62.0092 68.8425 63.1827 65.8722 63.7553C65.1785 62.3658 64.5058 60.9681 63.8528 59.5622C66.9466 58.9609 69.774 57.7468 72.3351 55.9187C72.9102 57.3489 73.4656 58.7871 74.0001 60.2334Z" fill="#C63D4F"/>
<path d="M30.3801 53.6016C33.1557 47.1995 32.8314 40.8934 29.6558 39.5166C26.4801 38.1398 21.6556 42.2136 18.88 48.6157C16.1044 55.0178 16.4286 61.3239 19.6043 62.7007C22.7799 64.0775 27.6044 60.0037 30.3801 53.6016Z" fill="#698ED5"/>
<path d="M17 57.5298C19.4487 59.3056 22.1576 60.4791 25.128 61.0517C25.8216 59.6622 26.4943 58.2645 27.1473 56.8586C24.0535 56.2572 21.2261 55.0432 18.665 53.2151C18.0899 54.6452 17.5345 56.0833 17 57.5298Z" fill="#4073C8"/>
<path d="M53.9297 28.7981C53.6208 28.7981 53.3223 28.6313 53.1681 28.3391C52.9465 27.9189 53.1075 27.3986 53.5276 27.1769L58.5458 24.53C58.966 24.3085 59.4863 24.4693 59.708 24.8895C59.9296 25.3096 59.7687 25.83 59.3485 26.0516L54.3303 28.6985C54.2024 28.766 54.065 28.7981 53.9297 28.7981Z" fill="#B9F6D3"/>
<path d="M58.9464 39.4763C58.8111 39.4763 58.6739 39.4444 58.5458 39.3768L53.5276 36.7299C53.1075 36.5082 52.9465 35.988 53.1681 35.5677C53.3897 35.1475 53.9099 34.9865 54.3303 35.2082L59.3485 37.8552C59.7687 38.0768 59.9296 38.5971 59.708 39.0173C59.5538 39.3095 59.2552 39.4763 58.9464 39.4763Z" fill="#B9F6D3"/>
<path d="M60.363 32.8135H54.5872C54.1121 32.8135 53.7271 32.4284 53.7271 31.9534C53.7271 31.4783 54.1121 31.0933 54.5872 31.0933H60.363C60.838 31.0933 61.2231 31.4783 61.2231 31.9534C61.2231 32.4284 60.838 32.8135 60.363 32.8135Z" fill="#B9F6D3"/>
<path d="M37.0702 28.798C36.9349 28.798 36.7976 28.766 36.6696 28.6985L31.6514 26.0515C31.2312 25.8299 31.0703 25.3096 31.2919 24.8894C31.5136 24.4691 32.0338 24.3081 32.4541 24.5299L37.4723 27.1768C37.8924 27.3985 38.0534 27.9187 37.8318 28.339C37.6776 28.6312 37.379 28.798 37.0702 28.798Z" fill="#B9F6D3"/>
<path d="M32.053 39.4762C31.7441 39.4762 31.4456 39.3094 31.2914 39.0172C31.0698 38.597 31.2308 38.0767 31.6509 37.855L36.6691 35.2081C37.0894 34.9866 37.6096 35.1474 37.8313 35.5676C38.0529 35.9877 37.892 36.5081 37.4718 36.7297L32.4536 39.3766C32.3257 39.4441 32.1884 39.4762 32.053 39.4762Z" fill="#B9F6D3"/>
<path d="M36.4128 32.8135H30.637C30.1619 32.8135 29.7769 32.4284 29.7769 31.9534C29.7769 31.4783 30.1619 31.0933 30.637 31.0933H36.4128C36.8878 31.0933 37.2729 31.4783 37.2729 31.9534C37.2729 32.4284 36.8878 32.8135 36.4128 32.8135Z" fill="#B9F6D3"/>
<path d="M46.9429 28.3551C46.7281 28.2792 46.5086 28.1998 46.2894 28.1173V24.5097C46.7541 24.638 47.0524 24.8615 47.1402 24.9347C47.5052 25.2385 48.0476 25.1888 48.3516 24.8237C48.6554 24.4585 48.6057 23.9161 48.2406 23.6123C48.0579 23.4602 47.3555 22.9293 46.2894 22.7538V22.0471C46.2894 21.5721 45.9043 21.187 45.4293 21.187C44.9543 21.187 44.5692 21.5721 44.5692 22.0471V22.8173C44.4674 22.8409 44.3646 22.8672 44.2597 22.8987C43.1029 23.2471 42.2386 24.2364 42.0042 25.4803C41.79 26.6167 42.1556 27.7137 42.9583 28.3433C43.3693 28.6657 43.8777 28.9611 44.5691 29.2714V33.8979C43.9838 33.8461 43.5955 33.6908 42.9467 33.2663C42.549 33.0062 42.0159 33.1177 41.7559 33.5153C41.4959 33.9128 41.6073 34.446 42.0048 34.706C43.0056 35.3608 43.6963 35.5659 44.5691 35.6224V36.4138C44.5691 36.8888 44.9542 37.2739 45.4292 37.2739C45.9042 37.2739 46.2893 36.8888 46.2893 36.4138V35.5509C48.0628 35.1774 49.0993 33.704 49.331 32.3264C49.6326 30.5333 48.6951 28.9745 46.9429 28.3551ZM44.0199 26.9898C43.729 26.7617 43.6014 26.2942 43.6947 25.799C43.7756 25.3694 44.0477 24.8585 44.5691 24.6179V27.3495C44.3643 27.2336 44.1782 27.1138 44.0199 26.9898ZM47.6346 32.0411C47.5208 32.7179 47.0639 33.4356 46.2894 33.7531V29.9484C46.3165 29.9581 46.3421 29.9675 46.3696 29.9771C47.7814 30.4761 47.6948 31.683 47.6346 32.0411Z" fill="#78D090"/>
</g>
<defs>
<filter id="filter0_d_2001_8" x="0" y="0" width="92" height="96" filterUnits="userSpaceOnUse" color-interpolation-filters="sRGB">
<feFlood flood-opacity="0" result="BackgroundImageFix"/>
<feColorMatrix in="SourceAlpha" type="matrix" values="0 0 0 0 0 0 0 0 0 0 0 0 0 0 0 0 0 0 127 0" result="hardAlpha"/>
<feOffset dy="4"/>
<feComposite in2="hardAlpha" operator="out"/>
<feColorMatrix type="matrix" values="0 0 0 0 1 0 0 0 0 0.274167 0 0 0 0 0.30731 0 0 0 1 0"/>
<feBlend mode="normal" in2="BackgroundImageFix" result="effect1_dropShadow_2001_8"/>
<feBlend mode="normal" in="SourceGraphic" in2="effect1_dropShadow_2001_8" result="shape"/>
</filter>
<clipPath id="clip0_2001_8">
<rect width="57" height="57" fill="white" transform="translate(17 20)"/>
</clipPath>
</defs>
</svg>
