<svg width="23" height="23" viewBox="0 0 23 23" fill="none" xmlns="http://www.w3.org/2000/svg">
<g clip-path="url(#clip0_7_6)">
<path d="M11.1707 1.29797C5.48434 1.29797 0.858154 5.92383 0.858154 11.6105C0.858154 13.6112 1.43185 15.5401 2.52084 17.2152L0.913879 20.9649C0.803101 21.2227 0.86084 21.5228 1.05957 21.7216C1.19116 21.8531 1.36707 21.923 1.54565 21.923C1.63696 21.923 1.72928 21.9048 1.81656 21.8672L5.56625 20.2599C7.24103 21.3496 9.16992 21.923 11.1707 21.923C16.8573 21.923 21.4832 17.2971 21.4832 11.6105C21.4832 5.92383 16.8573 1.29797 11.1707 1.29797ZM16.4639 15.3018C16.4639 15.3018 15.6065 16.4015 14.9868 16.6586C13.4117 17.3105 11.1881 16.6586 8.65497 14.1262C6.1225 11.593 5.47025 9.36938 6.1225 7.79431C6.37964 7.17395 7.47937 6.31726 7.47937 6.31726C7.77747 6.08496 8.24072 6.11383 8.50793 6.38104L9.75201 7.62512C10.0192 7.89233 10.0192 8.33008 9.75201 8.59729L8.97119 9.37744C8.97119 9.37744 8.65497 10.3268 10.5543 12.2268C12.4537 14.1262 13.4037 13.8099 13.4037 13.8099L14.1838 13.0291C14.451 12.7619 14.8888 12.7619 15.156 13.0291L16.4001 14.2732C16.6673 14.5404 16.6962 15.003 16.4639 15.3018Z" fill="white"/>
</g>
<defs>
<clipPath id="clip0_7_6">
<rect width="22" height="22" fill="white" transform="translate(0.170654 0.610474)"/>
</clipPath>
</defs>
</svg>
