<svg width="61" height="61" viewBox="0 0 61 61" fill="none" xmlns="http://www.w3.org/2000/svg">
<path d="M59.5754 30.4257C59.8206 30.4257 60.0197 30.2267 60.016 29.9816C59.9077 22.7584 57.1602 15.8181 52.2832 10.4749C47.3063 5.02239 40.4712 1.62688 33.1195 0.954878C25.7678 0.282878 18.4303 2.38292 12.5474 6.8428C6.66447 11.3027 2.66088 17.8003 1.32246 25.0604C-0.015961 32.3204 1.40745 39.8185 5.31331 46.083C9.21916 52.3475 15.3254 56.9259 22.4334 58.9196C29.5415 60.9134 37.1381 60.1784 43.7321 56.859C50.1938 53.6062 55.2355 48.1019 57.9124 41.3921C58.0032 41.1644 57.8882 40.9076 57.6591 40.8201V40.8201C57.4301 40.7327 57.1738 40.8478 57.0829 41.0755C54.485 47.5783 49.5968 52.9128 43.3329 56.066C36.9367 59.2858 29.568 59.9987 22.6732 58.0648C15.7784 56.1309 9.85535 51.6898 6.06667 45.6133C2.278 39.5367 0.897287 32.2635 2.19555 25.2213C3.49382 18.1791 7.37731 11.8764 13.0838 7.55028C18.7902 3.2242 25.9075 1.18716 33.0387 1.839C40.1699 2.49084 46.7999 5.78448 51.6275 11.0734C56.3552 16.253 59.0198 22.9799 59.1281 29.9816C59.1319 30.2267 59.3302 30.4257 59.5754 30.4257V30.4257Z" fill="#D9D9D9"/>
<path d="M34.8645 29.8623L25 36.7246V23L34.8645 29.8623Z" fill="white"/>
</svg>
